<svg width="212" height="102" viewBox="0 0 212 102" fill="none" xmlns="http://www.w3.org/2000/svg">
<path fill-rule="evenodd" clip-rule="evenodd" d="M107.913 13.9359L161.703 61.3068L161.729 38.0635L118.848 0L90.5593 24.7544V7.88023H80.0901L80.0638 33.9275L71.5019 41.4328H51V45.3785H71.9834L88.9981 30.4911L107.913 13.9359Z" fill="white"/>
<path d="M10.32 82.88H8.48V91H1.76V66.16H9.88C12.7333 66.16 14.8533 66.8133 16.24 68.12C17.6267 69.4267 18.32 71.5733 18.32 74.56C18.32 77.5467 17.6667 79.68 16.36 80.96C15.0533 82.24 13.04 82.88 10.32 82.88ZM11.08 77.48C11.32 77.0267 11.44 76.2133 11.44 75.04C11.44 73.8667 11.3067 73.04 11.04 72.56C10.7733 72.08 10.24 71.84 9.44 71.84H8.48V78.16H9.6C10.3467 78.16 10.84 77.9333 11.08 77.48ZM26.3947 80.24V91H19.7547V71.84H25.5947L25.9947 73H26.1547C26.768 72.3067 27.3814 71.8667 27.9947 71.68C28.6347 71.4667 29.6614 71.36 31.0747 71.36L30.7947 77.76H28.9547C27.9147 77.76 27.2214 77.92 26.8747 78.24C26.5547 78.56 26.3947 79.2267 26.3947 80.24ZM31.9738 81.36C31.9738 77.84 32.6404 75.2933 33.9738 73.72C35.3338 72.1467 37.4404 71.36 40.2938 71.36C43.1738 71.36 45.2671 72.1333 46.5738 73.68C47.8804 75.2267 48.5338 77.7733 48.5338 81.32C48.5338 84.84 47.8938 87.4 46.6138 89C45.3338 90.6 43.2404 91.4 40.3338 91.4C37.4271 91.4 35.3071 90.6 33.9738 89C32.6404 87.4 31.9738 84.8533 31.9738 81.36ZM41.5738 77.56C41.4138 77.0267 40.9871 76.76 40.2938 76.76C39.6004 76.76 39.1604 77.0267 38.9738 77.56C38.7871 78.0933 38.6938 79.2133 38.6938 80.92V81.88C38.6938 83.7733 38.7871 85 38.9738 85.56C39.1604 86.12 39.5871 86.4 40.2538 86.4C40.9471 86.4 41.3871 86.12 41.5738 85.56C41.7604 85 41.8538 83.8533 41.8538 82.12V80.96C41.8538 79.2267 41.7604 78.0933 41.5738 77.56ZM57.3341 90.56V96.48H50.6141V71.84H56.1341L56.5341 73.04H56.7341C57.4807 71.9467 58.9474 71.4 61.1341 71.4C63.3207 71.4 64.8541 72.16 65.7341 73.68C66.6407 75.2 67.0941 77.6933 67.0941 81.16C67.0941 84.6267 66.6141 87.2133 65.6541 88.92C64.7207 90.6 62.9874 91.44 60.4541 91.44C59.2807 91.44 58.2941 91.1467 57.4941 90.56H57.3341ZM60.1341 85C60.2407 84.52 60.3074 84.0533 60.3341 83.6C60.3607 83.1467 60.3741 82.2933 60.3741 81.04C60.3741 79.76 60.2807 78.7867 60.0941 78.12C59.9074 77.4267 59.5207 77.08 58.9341 77.08C58.3741 77.08 57.8141 77.24 57.2541 77.56V85.84C57.7607 86.08 58.2407 86.2 58.6941 86.2C59.1741 86.2 59.5074 86.12 59.6941 85.96C59.9074 85.7733 60.0541 85.4533 60.1341 85ZM77.2469 77.08C76.5535 77.08 76.1002 77.32 75.8869 77.8C75.6735 78.2533 75.5669 78.96 75.5669 79.92H79.0469V78.96C79.0469 77.7067 78.4469 77.08 77.2469 77.08ZM77.4069 71.36C80.1535 71.36 82.1135 72.0267 83.2869 73.36C84.4869 74.6667 85.0869 76.5467 85.0869 79C85.0869 79.32 84.9935 80.76 84.8069 83.32H75.6869C75.6869 85.32 76.6069 86.32 78.4469 86.32C79.3269 86.32 81.0469 86.0133 83.6069 85.4L84.1669 90.36C81.9269 91.0533 79.6869 91.4 77.4469 91.4C74.7002 91.4 72.5935 90.5067 71.1269 88.72C69.6602 86.9067 68.9269 84.4533 68.9269 81.36C68.9269 74.6933 71.7535 71.36 77.4069 71.36ZM93.5822 80.24V91H86.9422V71.84H92.7822L93.1822 73H93.3422C93.9555 72.3067 94.5689 71.8667 95.1822 71.68C95.8222 71.4667 96.8489 71.36 98.2622 71.36L97.9822 77.76H96.1422C95.1022 77.76 94.4089 77.92 94.0622 78.24C93.7422 78.56 93.5822 79.2267 93.5822 80.24ZM110.281 91.04C108.308 91.28 106.588 91.4 105.121 91.4C103.681 91.4 102.548 91.0267 101.721 90.28C100.921 89.5067 100.521 88.1867 100.521 86.32V77.04H98.6013V72.08H100.841L101.201 68.4H107.241V72.08H110.801L110.521 77.04H107.201V85C107.201 85.56 107.468 85.84 108.001 85.84C108.055 85.84 108.881 85.8 110.481 85.72L110.281 91.04ZM128.777 71.84L123.817 91.56C123.31 93.5333 122.563 94.9067 121.577 95.68C120.59 96.48 118.977 96.88 116.737 96.88H112.737L112.137 91.72H114.377C115.283 91.72 115.737 91.36 115.737 90.64C115.737 90.48 115.683 90.1333 115.577 89.6L110.977 71.84H118.097L119.897 83.8H120.257L122.217 71.84H128.777ZM153.388 72.2H148.748V91H141.908V72.2H136.987L137.388 66.16H153.788L153.388 72.2ZM161.434 80.24V91H154.794V71.84H160.634L161.034 73H161.194C161.807 72.3067 162.42 71.8667 163.034 71.68C163.674 71.4667 164.7 71.36 166.114 71.36L165.834 77.76H163.994C162.954 77.76 162.26 77.92 161.914 78.24C161.594 78.56 161.434 79.2267 161.434 80.24ZM172.093 91.4C168.919 91.4 167.333 89.64 167.333 86.12V71.84H174.133V84.48C174.133 85.1467 174.426 85.48 175.013 85.48C175.759 85.48 176.386 85.2933 176.893 84.92V71.84H183.613V90.92H177.253V89.52H177.093C175.626 90.7733 173.959 91.4 172.093 91.4ZM184.965 77.52C184.965 75.5733 185.551 74.0667 186.725 73C187.925 71.9067 189.565 71.36 191.645 71.36C193.725 71.36 195.831 71.6267 197.965 72.16L197.285 77.72C194.565 77.1067 192.738 76.8 191.805 76.8C191.245 76.8 190.965 77.0267 190.965 77.48C190.965 77.7733 191.271 78.04 191.885 78.28C194.018 79.0533 195.618 79.9333 196.685 80.92C197.778 81.9067 198.325 83.3867 198.325 85.36C198.325 87.3333 197.818 88.84 196.805 89.88C195.791 90.8933 194.231 91.4 192.125 91.4C190.045 91.4 187.965 91.1333 185.885 90.6L186.325 85.2C188.991 85.92 190.711 86.28 191.485 86.28C192.285 86.28 192.685 86.0933 192.685 85.72C192.685 85.3467 192.391 85.0533 191.805 84.84C189.431 83.9333 187.698 82.9733 186.605 81.96C185.511 80.92 184.965 79.44 184.965 77.52ZM210.477 91.04C208.503 91.28 206.783 91.4 205.317 91.4C203.877 91.4 202.743 91.0267 201.917 90.28C201.117 89.5067 200.717 88.1867 200.717 86.32V77.04H198.797V72.08H201.037L201.397 68.4H207.437V72.08H210.997L210.717 77.04H207.397V85C207.397 85.56 207.663 85.84 208.197 85.84C208.25 85.84 209.077 85.8 210.677 85.72L210.477 91.04Z" fill="white"/>
</svg>
