<svg width="273" height="204" viewBox="0 0 273 204" fill="none" xmlns="http://www.w3.org/2000/svg">
<path d="M272.9 178.695H0V178.831H272.9V178.695Z" fill="#EBEBEB"/>
<path d="M46.7095 187.477H28.6326V187.613H46.7095V187.477Z" fill="#EBEBEB"/>
<path d="M98.1511 188.961H93.4081V189.098H98.1511V188.961Z" fill="#EBEBEB"/>
<path d="M61.1295 182.412H47.2553V182.548H61.1295V182.412Z" fill="#EBEBEB"/>
<path d="M245.555 183.329H230.327V183.465H245.555V183.329Z" fill="#EBEBEB"/>
<path d="M225.47 183.329H213.664V183.465H225.47V183.329Z" fill="#EBEBEB"/>
<path d="M179.382 185.632H151.301V185.768H179.382V185.632Z" fill="#EBEBEB"/>
<path d="M129.354 154.352H23.9661C23.1405 154.351 22.3492 154.022 21.7659 153.437C21.1826 152.853 20.855 152.061 20.855 151.236V3.08922C20.8622 2.26836 21.193 1.48347 21.7755 0.905055C22.358 0.326638 23.1452 0.00140619 23.9661 0H129.354C130.181 0 130.974 0.328346 131.558 0.912806C132.143 1.49727 132.471 2.28996 132.471 3.11651V151.236C132.471 152.062 132.143 152.855 131.558 153.439C130.974 154.024 130.181 154.352 129.354 154.352ZM23.9661 0.10916C23.1767 0.110606 22.4201 0.425213 21.8624 0.983927C21.3047 1.54264 20.9915 2.29981 20.9915 3.08922V151.236C20.9915 152.025 21.3047 152.782 21.8624 153.341C22.4201 153.9 23.1767 154.214 23.9661 154.216H129.354C130.144 154.214 130.902 153.9 131.46 153.341C132.019 152.783 132.333 152.025 132.335 151.236V3.08922C132.333 2.29931 132.019 1.54215 131.46 0.983594C130.902 0.425036 130.144 0.110603 129.354 0.10916H23.9661Z" fill="#EBEBEB"/>
<path d="M247.416 154.352H142.022C141.196 154.351 140.404 154.022 139.82 153.438C139.236 152.854 138.907 152.062 138.906 151.236V3.08922C138.915 2.26786 139.247 1.48298 139.83 0.904713C140.413 0.326447 141.201 0.00139086 142.022 0H247.416C248.236 0.00284061 249.022 0.328707 249.603 0.90697C250.185 1.48523 250.515 2.2693 250.522 3.08922V151.236C250.522 152.06 250.195 152.851 249.613 153.435C249.031 154.02 248.241 154.349 247.416 154.352ZM142.022 0.10916C141.233 0.110603 140.475 0.425036 139.917 0.983594C139.358 1.54215 139.044 2.29931 139.042 3.08922V151.236C139.044 152.025 139.358 152.783 139.917 153.341C140.475 153.9 141.233 154.214 142.022 154.216H247.416C248.206 154.214 248.963 153.9 249.522 153.341C250.081 152.783 250.395 152.025 250.396 151.236V3.08922C250.395 2.29931 250.081 1.54215 249.522 0.983594C248.963 0.425036 248.206 0.110603 247.416 0.10916H142.022Z" fill="#EBEBEB"/>
<path d="M63.0453 104.793H45.4542V178.695H75.8006V117.549L63.0453 104.793Z" fill="#E0E0E0"/>
<path d="M58.2095 117.543H32.7043V178.689H58.2095V117.543Z" fill="#EBEBEB"/>
<path d="M58.2095 117.543H32.7043V118.548H58.2095V117.543Z" fill="#E0E0E0"/>
<path d="M45.4542 104.793L32.7043 117.549H58.204L45.4542 104.793Z" fill="#EBEBEB"/>
<path d="M41.6008 125.534H36.967V130.168H41.6008V125.534Z" fill="#E0E0E0"/>
<path d="M51.78 125.534H47.1461V130.168H51.78V125.534Z" fill="#E0E0E0"/>
<path d="M41.6008 138.813H36.967V143.447H41.6008V138.813Z" fill="#E0E0E0"/>
<path d="M51.78 138.813H47.1461V143.447H51.78V138.813Z" fill="#E0E0E0"/>
<path d="M41.6008 152.092H36.967V156.726H41.6008V152.092Z" fill="#E0E0E0"/>
<path d="M51.78 152.092H47.1461V156.726H51.78V152.092Z" fill="#E0E0E0"/>
<path d="M41.6008 165.372H36.967V170.006H41.6008V165.372Z" fill="#E0E0E0"/>
<path d="M51.78 165.372H47.1461V170.006H51.78V165.372Z" fill="#E0E0E0"/>
<path d="M70.943 105.781H66.7786V114.11H70.943V105.781Z" fill="#E0E0E0"/>
<path d="M161.933 95.0619H140.183V178.695H177.696V110.83L161.933 95.0619Z" fill="#E0E0E0"/>
<path d="M155.946 110.83H124.415V178.695H155.946V110.83Z" fill="#EBEBEB"/>
<path d="M155.946 110.83H124.415V112.074H155.946V110.83Z" fill="#E0E0E0"/>
<path d="M140.183 95.0619L124.415 110.83H155.946L140.183 95.0619Z" fill="#EBEBEB"/>
<path d="M175.398 120.993L161.649 120.987V178.695H191.166V136.756L175.398 120.993Z" fill="#E0E0E0"/>
<path d="M161.649 120.987V136.756V178.695H177.418V136.756L161.649 120.987Z" fill="#EBEBEB"/>
<path d="M142.066 124.573H138.3V132.591H142.066V124.573Z" fill="#E0E0E0"/>
<path d="M150.379 124.573H146.613V132.591H150.379V124.573Z" fill="#E0E0E0"/>
<path d="M142.066 139.823H138.3V147.841H142.066V139.823Z" fill="#E0E0E0"/>
<path d="M150.379 139.823H146.613V147.841H150.379V139.823Z" fill="#E0E0E0"/>
<path d="M142.066 155.067H138.3V163.085H142.066V155.067Z" fill="#E0E0E0"/>
<path d="M133.748 124.573H129.982V132.591H133.748V124.573Z" fill="#E0E0E0"/>
<path d="M133.748 139.823H129.982V147.841H133.748V139.823Z" fill="#E0E0E0"/>
<path d="M133.748 155.067H129.982V163.085H133.748V155.067Z" fill="#E0E0E0"/>
<path d="M150.379 155.067H146.613V163.085H150.379V155.067Z" fill="#E0E0E0"/>
<path d="M169.907 139.823H166.141V147.841H169.907V139.823Z" fill="#E0E0E0"/>
<path d="M169.907 155.067H166.141V163.085H169.907V155.067Z" fill="#E0E0E0"/>
<path d="M102.075 121.73H82.2847V178.695H116.424V136.079L102.075 121.73Z" fill="#E0E0E0"/>
<path d="M96.6283 136.079H67.9357V178.695H96.6283V136.079Z" fill="#EBEBEB"/>
<path d="M96.6283 136.079H67.9357V137.209H96.6283V136.079Z" fill="#E0E0E0"/>
<path d="M82.2847 121.73L67.9357 136.079H96.6283L82.2847 121.73Z" fill="#EBEBEB"/>
<path d="M77.9456 145.068H72.7332V150.28H77.9456V145.068Z" fill="#E0E0E0"/>
<path d="M89.402 145.068H84.1896V150.28H89.402V145.068Z" fill="#E0E0E0"/>
<path d="M77.9456 160.007H72.7332V165.219H77.9456V160.007Z" fill="#E0E0E0"/>
<path d="M89.402 160.007H84.1896V165.219H89.402V160.007Z" fill="#E0E0E0"/>
<path d="M85.434 115.426H79.13V128.034H85.434V115.426Z" fill="#EBEBEB"/>
<path d="M225.088 133.421H204.364V178.695H240.108V144.822L225.088 133.421Z" fill="#E0E0E0"/>
<path d="M219.39 144.822H189.349V178.689H219.39V144.822Z" fill="#EBEBEB"/>
<path d="M219.39 144.822H189.349V145.723H219.39V144.822Z" fill="#E0E0E0"/>
<path d="M204.364 133.421L189.349 144.822H219.384L204.364 133.421Z" fill="#EBEBEB"/>
<path d="M196.722 150.335H193.988V156.213H196.722V150.335Z" fill="#E0E0E0"/>
<path d="M202.732 150.335H199.997V156.213H202.732V150.335Z" fill="#E0E0E0"/>
<path d="M196.722 164.024H193.988V169.902H196.722V164.024Z" fill="#E0E0E0"/>
<path d="M202.732 164.024H199.997V169.902H202.732V164.024Z" fill="#E0E0E0"/>
<path d="M208.736 150.335H206.001V156.213H208.736V150.335Z" fill="#E0E0E0"/>
<path d="M214.745 150.335H212.01V156.213H214.745V150.335Z" fill="#E0E0E0"/>
<path d="M208.736 164.024H206.001V169.902H208.736V164.024Z" fill="#E0E0E0"/>
<path d="M214.745 164.024H212.01V169.902H214.745V164.024Z" fill="#E0E0E0"/>
<path d="M228.483 128.41H221.884V138.431H228.483V128.41Z" fill="#E0E0E0"/>
<path d="M109.866 33.4968C112.062 19.9705 102.877 7.22542 89.3504 5.0298C75.8241 2.83418 63.079 12.0195 60.8834 25.5457C58.6877 39.072 67.873 51.8171 81.3993 54.0128C94.9256 56.2084 107.671 47.0231 109.866 33.4968Z" fill="#FAFAFA"/>
<path d="M185.932 51.9219C189.643 46.2292 195.756 42.1794 201.395 42.1794C204.926 42.1794 207.617 43.7731 209.139 46.3711C211.015 44.9243 213.295 44.0965 215.662 44.0024C219.482 44.0024 221.9 46.7313 221.966 50.612C223.818 49.7527 225.816 49.2526 227.855 49.1383C231.719 48.9637 234.503 50.541 235.665 53.1008C236.429 52.6716 237.28 52.4198 238.154 52.364C240.376 52.2658 241.565 53.854 240.812 55.9117C240.763 56.0427 240.708 56.1682 240.659 56.2938H178.476C178.618 54.2743 183.17 52.0256 185.932 51.9219Z" fill="#FAFAFA"/>
<path d="M180.196 20.3692C181.92 17.733 184.759 15.85 187.373 15.85C188.091 15.8192 188.805 15.9836 189.437 16.3257C190.069 16.6678 190.597 17.1749 190.964 17.793C191.837 17.1254 192.895 16.7441 193.993 16.7014C195.773 16.7014 196.886 17.9732 196.919 19.7688C197.777 19.3713 198.703 19.1398 199.648 19.0866C201.438 19.0047 202.732 19.7361 203.272 20.9205C203.626 20.7236 204.019 20.608 204.424 20.5821C204.633 20.5436 204.849 20.5642 205.047 20.6415C205.245 20.7188 205.418 20.8498 205.546 21.0197C205.674 21.1897 205.753 21.392 205.772 21.6039C205.792 21.8158 205.752 22.0289 205.657 22.2195C205.657 22.2795 205.614 22.3396 205.586 22.3996H176.73C176.806 21.4608 178.919 20.4183 180.196 20.3692Z" fill="#FAFAFA"/>
<path d="M93.7629 30.0572C97.9273 23.6713 104.788 19.1412 111.108 19.1412C115.071 19.1412 118.089 20.9314 119.792 23.846C122.09 22.2086 124.666 21.1879 127.117 21.1879C131.423 21.1879 134.114 24.2608 134.185 28.6053C136.265 27.648 138.508 27.0925 140.794 26.9679C145.123 26.7715 148.25 28.5398 149.554 31.4162C150.411 30.9351 151.364 30.6516 152.344 30.5866C154.838 30.4774 156.164 32.2622 155.329 34.5709C155.274 34.7128 155.214 34.8547 155.154 34.9966H85.3685C85.5595 32.6934 90.6627 30.1718 93.7629 30.0572Z" fill="#F0F0F0"/>
<path d="M41.4807 60.4091C41.6382 60.3894 41.7969 60.3803 41.9556 60.3818C43.6858 58.6134 45.6779 57.4836 47.4136 57.4836C47.9582 57.4569 48.4983 57.5939 48.9642 57.877C49.4302 58.1601 49.8007 58.5763 50.028 59.0719C53.21 55.6443 56.9814 53.4174 60.1798 53.4174C62.7615 53.4174 64.4971 54.8638 65.2285 57.238C66.9314 55.8953 68.738 55.0875 70.3317 55.0875C73.1426 55.0875 74.4962 57.5764 73.9831 61.0913C75.3802 60.3355 76.9191 59.8782 78.5023 59.7487C81.3459 59.5904 83.1525 61.0204 83.6274 63.3509C84.203 62.9729 84.8628 62.7424 85.5486 62.6796C87.1041 62.5977 87.7591 63.8804 87.1096 65.6051H33.6703C35.1713 62.9853 38.5825 60.7038 41.4807 60.4091Z" fill="#F5F5F5"/>
<path d="M136.45 203.343C194.895 203.343 242.275 200.577 242.275 197.165C242.275 193.752 194.895 190.986 136.45 190.986C78.0043 190.986 30.6248 193.752 30.6248 197.165C30.6248 200.577 78.0043 203.343 136.45 203.343Z" fill="#F5F5F5"/>
<path d="M44.368 197.165H61.1459L58.6789 147.486H46.8351L44.368 197.165Z" fill="#407BFF"/>
<path opacity="0.1" d="M44.368 197.165H61.1459L58.6789 147.486H46.8351L44.368 197.165Z" fill="black"/>
<path d="M51.589 173.531L54.7055 170.415L35.4988 152.131L33.2992 154.325L51.589 173.531Z" fill="#407BFF"/>
<path opacity="0.1" d="M51.589 173.531L54.7055 170.415L35.4988 152.131L33.2992 154.325L51.589 173.531Z" fill="black"/>
<path d="M70.3099 152.125C79.1329 152.125 86.2854 145.63 86.2854 137.618C86.2854 129.606 79.1329 123.111 70.3099 123.111C61.4868 123.111 54.3343 129.606 54.3343 137.618C54.3343 145.63 61.4868 152.125 70.3099 152.125Z" fill="#407BFF"/>
<path d="M56.3483 133.393C63.1668 133.393 68.6943 128.374 68.6943 122.183C68.6943 115.991 63.1668 110.972 56.3483 110.972C49.5298 110.972 44.0023 115.991 44.0023 122.183C44.0023 128.374 49.5298 133.393 56.3483 133.393Z" fill="#407BFF"/>
<path d="M50.6884 146.624C57.5069 146.624 63.0344 141.604 63.0344 135.413C63.0344 129.221 57.5069 124.202 50.6884 124.202C43.8699 124.202 38.3424 129.221 38.3424 135.413C38.3424 141.604 43.8699 146.624 50.6884 146.624Z" fill="#407BFF"/>
<path d="M40.411 136.177C47.2295 136.177 52.757 131.158 52.757 124.966C52.757 118.775 47.2295 113.756 40.411 113.756C33.5925 113.756 28.065 118.775 28.065 124.966C28.065 131.158 33.5925 136.177 40.411 136.177Z" fill="#407BFF"/>
<path d="M35.1986 151.618C42.0171 151.618 47.5446 146.598 47.5446 140.407C47.5446 134.215 42.0171 129.196 35.1986 129.196C28.3801 129.196 22.8526 134.215 22.8526 140.407C22.8526 146.598 28.3801 151.618 35.1986 151.618Z" fill="#407BFF"/>
<path d="M39.958 160.039C46.7765 160.039 52.304 155.02 52.304 148.829C52.304 142.637 46.7765 137.618 39.958 137.618C33.1395 137.618 27.612 142.637 27.612 148.829C27.612 155.02 33.1395 160.039 39.958 160.039Z" fill="#407BFF"/>
<path d="M52.757 157.927C62.1467 157.927 69.7586 151.016 69.7586 142.492C69.7586 133.967 62.1467 127.057 52.757 127.057C43.3672 127.057 35.7553 133.967 35.7553 142.492C35.7553 151.016 43.3672 157.927 52.757 157.927Z" fill="#407BFF"/>
<path d="M61.6208 163.5C71.0105 163.5 78.6224 156.589 78.6224 148.064C78.6224 139.54 71.0105 132.629 61.6208 132.629C52.231 132.629 44.6191 139.54 44.6191 148.064C44.6191 156.589 52.231 163.5 61.6208 163.5Z" fill="#407BFF"/>
<path d="M25.527 138.469C30.1963 138.469 33.9815 135.031 33.9815 130.79C33.9815 126.549 30.1963 123.111 25.527 123.111C20.8578 123.111 17.0726 126.549 17.0726 130.79C17.0726 135.031 20.8578 138.469 25.527 138.469Z" fill="#407BFF"/>
<path d="M30.4665 133.393C35.1358 133.393 38.9209 129.955 38.9209 125.714C38.9209 121.473 35.1358 118.035 30.4665 118.035C25.7973 118.035 22.0121 121.473 22.0121 125.714C22.0121 129.955 25.7973 133.393 30.4665 133.393Z" fill="#407BFF"/>
<path d="M71.7672 127.903C76.4364 127.903 80.2216 124.464 80.2216 120.223C80.2216 115.982 76.4364 112.544 71.7672 112.544C67.0979 112.544 63.3127 115.982 63.3127 120.223C63.3127 124.464 67.0979 127.903 71.7672 127.903Z" fill="#407BFF"/>
<g opacity="0.3">
<path d="M70.3099 152.125C79.1329 152.125 86.2854 145.63 86.2854 137.618C86.2854 129.606 79.1329 123.111 70.3099 123.111C61.4868 123.111 54.3343 129.606 54.3343 137.618C54.3343 145.63 61.4868 152.125 70.3099 152.125Z" fill="white"/>
<path d="M56.3483 133.393C63.1668 133.393 68.6943 128.374 68.6943 122.183C68.6943 115.991 63.1668 110.972 56.3483 110.972C49.5298 110.972 44.0023 115.991 44.0023 122.183C44.0023 128.374 49.5298 133.393 56.3483 133.393Z" fill="white"/>
<path d="M50.6884 146.624C57.5069 146.624 63.0344 141.604 63.0344 135.413C63.0344 129.221 57.5069 124.202 50.6884 124.202C43.8699 124.202 38.3424 129.221 38.3424 135.413C38.3424 141.604 43.8699 146.624 50.6884 146.624Z" fill="white"/>
<path d="M40.411 136.177C47.2295 136.177 52.757 131.158 52.757 124.966C52.757 118.775 47.2295 113.755 40.411 113.755C33.5925 113.755 28.065 118.775 28.065 124.966C28.065 131.158 33.5925 136.177 40.411 136.177Z" fill="white"/>
<path d="M35.1986 151.618C42.0171 151.618 47.5446 146.598 47.5446 140.407C47.5446 134.215 42.0171 129.196 35.1986 129.196C28.3801 129.196 22.8526 134.215 22.8526 140.407C22.8526 146.598 28.3801 151.618 35.1986 151.618Z" fill="white"/>
<path d="M39.958 160.039C46.7765 160.039 52.304 155.02 52.304 148.829C52.304 142.637 46.7765 137.618 39.958 137.618C33.1395 137.618 27.612 142.637 27.612 148.829C27.612 155.02 33.1395 160.039 39.958 160.039Z" fill="white"/>
<path d="M52.757 157.927C62.1467 157.927 69.7586 151.016 69.7586 142.492C69.7586 133.967 62.1467 127.057 52.757 127.057C43.3672 127.057 35.7553 133.967 35.7553 142.492C35.7553 151.016 43.3672 157.927 52.757 157.927Z" fill="white"/>
<path d="M61.6208 163.5C71.0105 163.5 78.6224 156.589 78.6224 148.064C78.6224 139.54 71.0105 132.629 61.6208 132.629C52.231 132.629 44.6191 139.54 44.6191 148.064C44.6191 156.589 52.231 163.5 61.6208 163.5Z" fill="white"/>
<path d="M25.527 138.469C30.1963 138.469 33.9815 135.031 33.9815 130.79C33.9815 126.549 30.1963 123.111 25.527 123.111C20.8578 123.111 17.0726 126.549 17.0726 130.79C17.0726 135.031 20.8578 138.469 25.527 138.469Z" fill="white"/>
<path d="M30.4665 133.393C35.1358 133.393 38.9209 129.955 38.9209 125.714C38.9209 121.473 35.1358 118.035 30.4665 118.035C25.7973 118.035 22.0121 121.473 22.0121 125.714C22.0121 129.955 25.7973 133.393 30.4665 133.393Z" fill="white"/>
<path d="M71.7672 127.903C76.4364 127.903 80.2216 124.464 80.2216 120.223C80.2216 115.982 76.4364 112.544 71.7672 112.544C67.0979 112.544 63.3127 115.982 63.3127 120.223C63.3127 124.464 67.0979 127.903 71.7672 127.903Z" fill="white"/>
</g>
<path d="M153.255 191.494C153.255 193.465 152.79 195.408 151.896 197.165H124.513C123.623 195.407 123.16 193.464 123.16 191.494C123.16 190.306 123.328 189.125 123.656 187.984L123.826 187.438C124.489 185.526 125.575 183.787 127.002 182.352C127.226 182.133 127.455 181.915 127.695 181.708C129.159 180.404 130.866 179.401 132.717 178.755C133.98 178.299 135.297 178.007 136.635 177.887C137.158 177.834 137.682 177.809 138.207 177.811C140.836 177.801 143.427 178.435 145.756 179.655C150.242 182.035 153.255 186.445 153.255 191.494Z" fill="#407BFF"/>
<path d="M125.059 187.515C131.48 187.515 136.685 182.786 136.685 176.954C136.685 171.121 131.48 166.392 125.059 166.392C118.638 166.392 113.434 171.121 113.434 176.954C113.434 182.786 118.638 187.515 125.059 187.515Z" fill="#407BFF"/>
<path d="M131.352 189.392C131.338 190.879 130.997 192.344 130.353 193.683C129.708 195.023 128.777 196.204 127.624 197.143H111.829C110.092 195.716 108.867 193.761 108.341 191.576C108.224 191.061 108.151 190.537 108.123 190.009C108.123 189.824 108.123 189.627 108.123 189.463C108.131 187.672 108.628 185.918 109.558 184.387C110.634 182.628 112.181 181.205 114.023 180.278C116.38 179.083 119.052 178.656 121.664 179.055C123.893 179.373 125.99 180.307 127.717 181.751C128.248 182.203 128.735 182.706 129.169 183.252C129.874 184.127 130.427 185.114 130.806 186.172C130.888 186.396 130.959 186.62 131.019 186.849C131.245 187.678 131.357 188.533 131.352 189.392Z" fill="#407BFF"/>
<path d="M110.05 190.14C116.47 190.14 121.675 185.412 121.675 179.579C121.675 173.746 116.47 169.018 110.05 169.018C103.629 169.018 98.424 173.746 98.424 179.579C98.424 185.412 103.629 190.14 110.05 190.14Z" fill="#407BFF"/>
<path d="M116.801 194.114C116.801 195.151 116.633 196.181 116.304 197.165H94.0358C93.7088 196.181 93.543 195.15 93.5446 194.114C93.5444 193.398 93.6231 192.684 93.7793 191.985C94.2648 189.924 95.3695 188.061 96.9449 186.647C97.8189 185.852 98.8091 185.195 99.8813 184.699C101.13 184.116 102.468 183.747 103.838 183.607C104.264 183.569 104.701 183.541 105.143 183.541C105.979 183.541 106.813 183.625 107.632 183.792C108.279 183.92 108.915 184.103 109.531 184.338C111.914 185.216 113.943 186.851 115.306 188.994C116.1 190.279 116.586 191.73 116.725 193.235C116.725 193.393 116.725 193.557 116.757 193.721C116.79 193.884 116.801 193.983 116.801 194.114Z" fill="#407BFF"/>
<path d="M119.929 197.165H99.3355C100.888 194.559 103.41 192.675 106.349 191.925C107.008 191.75 107.679 191.627 108.358 191.559C111.233 191.262 114.123 191.961 116.545 193.54C116.632 193.601 116.714 193.655 116.796 193.721C118.079 194.626 119.148 195.802 119.929 197.165Z" fill="#407BFF"/>
<path d="M137.683 196.084C137.683 196.45 137.683 196.81 137.64 197.176H105.71C105.683 196.821 105.667 196.461 105.667 196.084C105.666 193.902 106.202 191.754 107.228 189.829C107.505 189.291 107.821 188.773 108.172 188.279C109.016 187.075 110.035 186.005 111.196 185.102C112.451 184.114 113.845 183.316 115.333 182.734C117.29 181.967 119.371 181.565 121.473 181.549H121.681C123.486 181.548 125.281 181.826 127.002 182.373C128.927 182.991 130.723 183.955 132.302 185.217C133.102 185.869 133.833 186.6 134.485 187.4C136.53 189.834 137.661 192.905 137.683 196.084Z" fill="#407BFF"/>
<path d="M145.368 197.165H114.689C115.111 195.872 115.726 194.65 116.512 193.54C116.577 193.442 116.654 193.333 116.73 193.235C118.504 190.873 120.903 189.054 123.656 187.984C124.108 187.81 124.571 187.651 125.048 187.509C126.406 187.107 127.808 186.873 129.223 186.811H130.026C130.353 186.811 130.681 186.811 130.997 186.838C132.179 186.898 133.352 187.081 134.496 187.384C139.725 188.737 143.818 192.449 145.368 197.165Z" fill="#407BFF"/>
<path d="M96.0334 192.291C100.431 192.291 103.997 189.053 103.997 185.059C103.997 181.065 100.431 177.827 96.0334 177.827C91.6354 177.827 88.0702 181.065 88.0702 185.059C88.0702 189.053 91.6354 192.291 96.0334 192.291Z" fill="#407BFF"/>
<path d="M100.684 187.515C105.082 187.515 108.647 184.277 108.647 180.283C108.647 176.289 105.082 173.051 100.684 173.051C96.2856 173.051 92.7204 176.289 92.7204 180.283C92.7204 184.277 96.2856 187.515 100.684 187.515Z" fill="#407BFF"/>
<path d="M139.583 182.341C143.981 182.341 147.546 179.103 147.546 175.109C147.546 171.115 143.981 167.877 139.583 167.877C135.185 167.877 131.62 171.115 131.62 175.109C131.62 179.103 135.185 182.341 139.583 182.341Z" fill="#407BFF"/>
<g opacity="0.3">
<path d="M153.255 191.494C153.255 193.465 152.79 195.408 151.896 197.165H124.513C123.623 195.407 123.16 193.464 123.16 191.494C123.16 190.306 123.328 189.125 123.656 187.984L123.826 187.438C124.489 185.526 125.575 183.787 127.002 182.352C127.226 182.133 127.455 181.915 127.695 181.708C129.159 180.404 130.866 179.401 132.717 178.755C133.98 178.299 135.297 178.007 136.635 177.887C137.158 177.834 137.682 177.809 138.207 177.811C140.836 177.801 143.427 178.435 145.756 179.655C150.242 182.035 153.255 186.445 153.255 191.494Z" fill="white"/>
<path d="M125.059 187.515C131.48 187.515 136.685 182.786 136.685 176.954C136.685 171.121 131.48 166.392 125.059 166.392C118.638 166.392 113.434 171.121 113.434 176.954C113.434 182.786 118.638 187.515 125.059 187.515Z" fill="white"/>
<path d="M131.352 189.392C131.338 190.879 130.997 192.344 130.353 193.683C129.708 195.023 128.777 196.204 127.624 197.143H111.829C110.092 195.716 108.867 193.761 108.341 191.576C108.224 191.061 108.151 190.537 108.123 190.009C108.123 189.824 108.123 189.627 108.123 189.463C108.131 187.672 108.628 185.918 109.558 184.387C110.634 182.628 112.181 181.205 114.023 180.278C116.38 179.083 119.052 178.656 121.664 179.055C123.893 179.373 125.99 180.306 127.717 181.751C128.248 182.203 128.735 182.706 129.169 183.252C129.874 184.127 130.427 185.114 130.806 186.172C130.888 186.396 130.959 186.62 131.019 186.849C131.245 187.678 131.357 188.533 131.352 189.392Z" fill="white"/>
<path d="M110.05 190.14C116.47 190.14 121.675 185.412 121.675 179.579C121.675 173.746 116.47 169.018 110.05 169.018C103.629 169.018 98.424 173.746 98.424 179.579C98.424 185.412 103.629 190.14 110.05 190.14Z" fill="white"/>
<path d="M116.801 194.114C116.801 195.151 116.633 196.181 116.304 197.165H94.0358C93.7088 196.181 93.543 195.15 93.5446 194.114C93.5444 193.398 93.6231 192.684 93.7793 191.985C94.2648 189.924 95.3695 188.061 96.9449 186.647C97.8189 185.852 98.8091 185.195 99.8813 184.699C101.13 184.116 102.468 183.747 103.838 183.607C104.264 183.569 104.701 183.541 105.143 183.541C105.979 183.541 106.813 183.625 107.632 183.792C108.279 183.92 108.915 184.103 109.531 184.338C111.914 185.216 113.943 186.851 115.306 188.994C116.1 190.279 116.586 191.73 116.725 193.235C116.725 193.393 116.725 193.557 116.757 193.721C116.79 193.884 116.801 193.983 116.801 194.114Z" fill="white"/>
<path d="M119.929 197.165H99.3355C100.888 194.559 103.41 192.675 106.349 191.925C107.008 191.75 107.679 191.627 108.358 191.559C111.233 191.262 114.123 191.961 116.545 193.54C116.632 193.601 116.714 193.655 116.796 193.721C118.079 194.626 119.148 195.802 119.929 197.165Z" fill="white"/>
<path d="M137.683 196.084C137.683 196.45 137.683 196.81 137.64 197.176H105.71C105.683 196.821 105.667 196.461 105.667 196.084C105.666 193.902 106.202 191.754 107.228 189.829C107.505 189.291 107.821 188.773 108.172 188.279C109.016 187.075 110.035 186.005 111.196 185.102C112.451 184.114 113.845 183.316 115.333 182.734C117.29 181.967 119.371 181.565 121.473 181.549H121.681C123.486 181.548 125.281 181.826 127.002 182.373C128.927 182.991 130.723 183.955 132.302 185.217C133.102 185.869 133.833 186.6 134.485 187.4C136.53 189.834 137.661 192.905 137.683 196.084Z" fill="white"/>
<path d="M145.368 197.165H114.689C115.111 195.872 115.726 194.65 116.512 193.54C116.577 193.442 116.654 193.333 116.73 193.235C118.504 190.873 120.903 189.054 123.656 187.984C124.108 187.81 124.571 187.651 125.048 187.509C126.406 187.107 127.808 186.873 129.223 186.811H130.026C130.353 186.811 130.681 186.811 130.997 186.838C132.179 186.898 133.352 187.081 134.496 187.384C139.725 188.737 143.818 192.449 145.368 197.165Z" fill="white"/>
<path d="M96.0334 192.291C100.431 192.291 103.997 189.053 103.997 185.059C103.997 181.065 100.431 177.827 96.0334 177.827C91.6354 177.827 88.0702 181.065 88.0702 185.059C88.0702 189.053 91.6354 192.291 96.0334 192.291Z" fill="white"/>
<path d="M100.684 187.515C105.082 187.515 108.647 184.277 108.647 180.283C108.647 176.289 105.082 173.051 100.684 173.051C96.2856 173.051 92.7204 176.289 92.7204 180.283C92.7204 184.277 96.2856 187.515 100.684 187.515Z" fill="white"/>
<path d="M139.583 182.341C143.981 182.341 147.546 179.103 147.546 175.109C147.546 171.115 143.981 167.877 139.583 167.877C135.185 167.877 131.62 171.115 131.62 175.109C131.62 179.103 135.185 182.341 139.583 182.341Z" fill="white"/>
</g>
<path d="M188.781 197.165H211.606L208.25 129.6H192.138L188.781 197.165Z" fill="#407BFF"/>
<path opacity="0.1" d="M188.781 197.165H211.606L208.25 129.6H192.138L188.781 197.165Z" fill="black"/>
<path d="M198.605 165.022L202.846 160.787L176.73 135.915L173.733 138.906L198.605 165.022Z" fill="#407BFF"/>
<path opacity="0.1" d="M198.605 165.022L202.846 160.787L176.73 135.915L173.733 138.906L198.605 165.022Z" fill="black"/>
<path d="M224.067 135.915C236.067 135.915 245.795 127.081 245.795 116.184C245.795 105.287 236.067 96.4537 224.067 96.4537C212.067 96.4537 202.339 105.287 202.339 116.184C202.339 127.081 212.067 135.915 224.067 135.915Z" fill="#407BFF"/>
<path d="M205.079 110.437C214.351 110.437 221.867 103.61 221.867 95.1874C221.867 86.7653 214.351 79.9378 205.079 79.9378C195.807 79.9378 188.29 86.7653 188.29 95.1874C188.29 103.61 195.807 110.437 205.079 110.437Z" fill="#407BFF"/>
<path d="M197.383 128.432C206.655 128.432 214.172 121.605 214.172 113.182C214.172 104.76 206.655 97.9328 197.383 97.9328C188.111 97.9328 180.594 104.76 180.594 113.182C180.594 121.605 188.111 128.432 197.383 128.432Z" fill="#407BFF"/>
<path d="M183.405 114.23C192.677 114.23 200.194 107.403 200.194 98.9807C200.194 90.5586 192.677 83.7311 183.405 83.7311C174.133 83.7311 166.616 90.5586 166.616 98.9807C166.616 107.403 174.133 114.23 183.405 114.23Z" fill="#407BFF"/>
<path d="M176.315 135.222C185.587 135.222 193.104 128.394 193.104 119.972C193.104 111.55 185.587 104.723 176.315 104.723C167.043 104.723 159.526 111.55 159.526 119.972C159.526 128.394 167.043 135.222 176.315 135.222Z" fill="#407BFF"/>
<path d="M182.788 146.684C192.06 146.684 199.577 139.856 199.577 131.434C199.577 123.012 192.06 116.184 182.788 116.184C173.516 116.184 165.999 123.012 165.999 131.434C165.999 139.856 173.516 146.684 182.788 146.684Z" fill="#407BFF"/>
<path d="M200.194 143.813C212.963 143.813 223.314 134.412 223.314 122.816C223.314 111.22 212.963 101.819 200.194 101.819C187.425 101.819 177.074 111.22 177.074 122.816C177.074 134.412 187.425 143.813 200.194 143.813Z" fill="#407BFF"/>
<path d="M212.251 151.388C225.019 151.388 235.371 141.988 235.371 130.391C235.371 118.795 225.019 109.395 212.251 109.395C199.482 109.395 189.13 118.795 189.13 130.391C189.13 141.988 199.482 151.388 212.251 151.388Z" fill="#407BFF"/>
<path d="M163.167 117.336C169.518 117.336 174.667 112.661 174.667 106.895C174.667 101.128 169.518 96.4537 163.167 96.4537C156.815 96.4537 151.667 101.128 151.667 106.895C151.667 112.661 156.815 117.336 163.167 117.336Z" fill="#407BFF"/>
<path d="M169.88 110.437C176.231 110.437 181.38 105.762 181.38 99.9959C181.38 94.2294 176.231 89.5548 169.88 89.5548C163.529 89.5548 158.38 94.2294 158.38 99.9959C158.38 105.762 163.529 110.437 169.88 110.437Z" fill="#407BFF"/>
<path d="M226.048 102.971C232.4 102.971 237.548 98.2959 237.548 92.5294C237.548 86.7629 232.4 82.0882 226.048 82.0882C219.697 82.0882 214.548 86.7629 214.548 92.5294C214.548 98.2959 219.697 102.971 226.048 102.971Z" fill="#407BFF"/>
<g opacity="0.3">
<path d="M224.067 135.915C236.067 135.915 245.795 127.081 245.795 116.184C245.795 105.287 236.067 96.4537 224.067 96.4537C212.067 96.4537 202.339 105.287 202.339 116.184C202.339 127.081 212.067 135.915 224.067 135.915Z" fill="white"/>
<path d="M205.079 110.437C214.351 110.437 221.867 103.61 221.867 95.1874C221.867 86.7653 214.351 79.9378 205.079 79.9378C195.807 79.9378 188.29 86.7653 188.29 95.1874C188.29 103.61 195.807 110.437 205.079 110.437Z" fill="white"/>
<path d="M197.383 128.432C206.655 128.432 214.172 121.605 214.172 113.182C214.172 104.76 206.655 97.9328 197.383 97.9328C188.111 97.9328 180.594 104.76 180.594 113.182C180.594 121.605 188.111 128.432 197.383 128.432Z" fill="white"/>
<path d="M183.405 114.23C192.677 114.23 200.194 107.403 200.194 98.9807C200.194 90.5586 192.677 83.7311 183.405 83.7311C174.133 83.7311 166.616 90.5586 166.616 98.9807C166.616 107.403 174.133 114.23 183.405 114.23Z" fill="white"/>
<path d="M176.315 135.222C185.587 135.222 193.104 128.394 193.104 119.972C193.104 111.55 185.587 104.723 176.315 104.723C167.043 104.723 159.526 111.55 159.526 119.972C159.526 128.394 167.043 135.222 176.315 135.222Z" fill="white"/>
<path d="M182.788 146.684C192.06 146.684 199.577 139.856 199.577 131.434C199.577 123.012 192.06 116.184 182.788 116.184C173.516 116.184 165.999 123.012 165.999 131.434C165.999 139.856 173.516 146.684 182.788 146.684Z" fill="white"/>
<path d="M200.194 143.813C212.963 143.813 223.314 134.412 223.314 122.816C223.314 111.22 212.963 101.819 200.194 101.819C187.425 101.819 177.074 111.22 177.074 122.816C177.074 134.412 187.425 143.813 200.194 143.813Z" fill="white"/>
<path d="M212.251 151.388C225.019 151.388 235.371 141.988 235.371 130.391C235.371 118.795 225.019 109.395 212.251 109.395C199.482 109.395 189.13 118.795 189.13 130.391C189.13 141.988 199.482 151.388 212.251 151.388Z" fill="white"/>
<path d="M163.167 117.336C169.518 117.336 174.667 112.661 174.667 106.895C174.667 101.128 169.518 96.4537 163.167 96.4537C156.815 96.4537 151.667 101.128 151.667 106.895C151.667 112.661 156.815 117.336 163.167 117.336Z" fill="white"/>
<path d="M169.88 110.437C176.231 110.437 181.38 105.762 181.38 99.9959C181.38 94.2294 176.231 89.5548 169.88 89.5548C163.529 89.5548 158.38 94.2294 158.38 99.9959C158.38 105.762 163.529 110.437 169.88 110.437Z" fill="white"/>
<path d="M226.048 102.971C232.4 102.971 237.548 98.2959 237.548 92.5294C237.548 86.7629 232.4 82.0882 226.048 82.0882C219.697 82.0882 214.548 86.7629 214.548 92.5294C214.548 98.2959 219.697 102.971 226.048 102.971Z" fill="white"/>
</g>
<path d="M75.8989 43.2655H66.4838V73.1044H75.8989V43.2655Z" fill="#263238"/>
<path d="M92.2674 38.4025L48.9418 81.728H135.588L92.2674 38.4025Z" fill="#263238"/>
<path d="M92.2674 42.0811L52.6151 81.728H131.914L92.2674 42.0811Z" fill="#407BFF"/>
<path opacity="0.1" d="M74.9492 74.9328V77.2415H109.586V74.9328H74.9492Z" fill="black"/>
<path opacity="0.1" d="M92.5894 54.3016V51.9929H86.2854V54.3016H89.4347V56.6049H95.7387V54.3016H92.5894Z" fill="black"/>
<path d="M127.204 79.2883H57.3253V197.165H127.204V79.2883Z" fill="#407BFF"/>
<path d="M128.563 195.68H55.9663V197.165H128.563V195.68Z" fill="#407BFF"/>
<path d="M56.3865 105.045V138.393H55.4969V140.156H57.3253V138.393V105.045H56.3865Z" fill="#407BFF"/>
<path d="M128.143 105.045V138.393H129.032V140.156H127.204V138.393V105.045H128.143Z" fill="#407BFF"/>
<path d="M55.4423 83.3545H129.087L128.219 95.0455H56.3101L55.4423 83.3545Z" fill="#407BFF"/>
<path opacity="0.1" d="M127.204 81.728H57.3253V83.3545H127.204V81.728Z" fill="black"/>
<path opacity="0.1" d="M127.204 94.9473H57.3253V96.5737H127.204V94.9473Z" fill="black"/>
<path opacity="0.4" d="M92.2674 60.0652C88.3228 60.0652 84.5398 61.6322 81.7506 64.4214C78.9613 67.2107 77.3943 70.9937 77.3943 74.9383H107.135C107.135 70.9946 105.569 67.2124 102.781 64.4234C99.9926 61.6343 96.211 60.0667 92.2674 60.0652Z" fill="white"/>
<path opacity="0.3" d="M94.3742 63.6675C91.3859 63.669 88.5206 64.8571 86.4081 66.9706C84.2956 69.0841 83.1089 71.95 83.1089 74.9383H105.639C105.639 71.95 104.453 69.0841 102.34 66.9706C100.228 64.8571 97.3624 63.669 94.3742 63.6675Z" fill="#407BFF"/>
<path opacity="0.1" d="M59.6395 85.6414H58.799V92.7586H59.6395V85.6414Z" fill="black"/>
<path opacity="0.1" d="M63.7712 85.6414H62.9307V92.7586H63.7712V85.6414Z" fill="black"/>
<path opacity="0.1" d="M67.9029 85.6414H67.0624V92.7586H67.9029V85.6414Z" fill="black"/>
<path opacity="0.1" d="M72.0346 85.6414H71.1941V92.7586H72.0346V85.6414Z" fill="black"/>
<path opacity="0.1" d="M76.1608 85.6414H75.3203V92.7586H76.1608V85.6414Z" fill="black"/>
<path opacity="0.1" d="M80.2926 85.6414H79.452V92.7586H80.2926V85.6414Z" fill="black"/>
<path opacity="0.1" d="M84.4243 85.6414H83.5837V92.7586H84.4243V85.6414Z" fill="black"/>
<path opacity="0.1" d="M88.556 85.6414H87.7154V92.7586H88.556V85.6414Z" fill="black"/>
<path opacity="0.1" d="M92.6822 85.6414H91.8417V92.7586H92.6822V85.6414Z" fill="black"/>
<path opacity="0.1" d="M96.8139 85.6414H95.9734V92.7586H96.8139V85.6414Z" fill="black"/>
<path opacity="0.1" d="M100.946 85.6414H100.105V92.7586H100.946V85.6414Z" fill="black"/>
<path opacity="0.1" d="M105.077 85.6414H104.237V92.7586H105.077V85.6414Z" fill="black"/>
<path opacity="0.1" d="M109.209 85.6414H108.368V92.7586H109.209V85.6414Z" fill="black"/>
<path opacity="0.1" d="M113.335 85.6414H112.495V92.7586H113.335V85.6414Z" fill="black"/>
<path opacity="0.1" d="M117.467 85.6414H116.626V92.7586H117.467V85.6414Z" fill="black"/>
<path opacity="0.1" d="M121.599 85.6414H120.758V92.7586H121.599V85.6414Z" fill="black"/>
<path opacity="0.1" d="M125.73 85.6414H124.89V92.7586H125.73V85.6414Z" fill="black"/>
<path opacity="0.1" d="M60.4528 142.459H59.6341V144.375H60.4528V142.459Z" fill="black"/>
<path opacity="0.1" d="M64.4807 142.459H63.662V144.375H64.4807V142.459Z" fill="black"/>
<path opacity="0.1" d="M68.5087 142.459H67.69V144.375H68.5087V142.459Z" fill="black"/>
<path opacity="0.1" d="M72.5367 142.459H71.718V144.375H72.5367V142.459Z" fill="black"/>
<path opacity="0.1" d="M76.5647 142.459H75.746V144.375H76.5647V142.459Z" fill="black"/>
<path opacity="0.1" d="M80.5927 142.459H79.774V144.375H80.5927V142.459Z" fill="black"/>
<path opacity="0.1" d="M84.6207 142.459H83.802V144.375H84.6207V142.459Z" fill="black"/>
<path opacity="0.1" d="M88.6487 142.459H87.83V144.375H88.6487V142.459Z" fill="black"/>
<path opacity="0.1" d="M92.6713 142.459H91.8526V144.375H92.6713V142.459Z" fill="black"/>
<path opacity="0.1" d="M96.6993 142.459H95.8806V144.375H96.6993V142.459Z" fill="black"/>
<path opacity="0.1" d="M100.727 142.459H99.9086V144.375H100.727V142.459Z" fill="black"/>
<path opacity="0.1" d="M104.755 142.459H103.937V144.375H104.755V142.459Z" fill="black"/>
<path opacity="0.1" d="M108.783 142.459H107.965V144.375H108.783V142.459Z" fill="black"/>
<path opacity="0.1" d="M112.811 142.459H111.993V144.375H112.811V142.459Z" fill="black"/>
<path opacity="0.1" d="M116.839 142.459H116.021V144.375H116.839V142.459Z" fill="black"/>
<path opacity="0.1" d="M120.862 142.459H120.043V144.375H120.862V142.459Z" fill="black"/>
<path opacity="0.1" d="M124.89 142.459H124.071V144.375H124.89V142.459Z" fill="black"/>
<path opacity="0.4" d="M80.3199 138.387V105.039H64.1915V138.387H80.3199Z" fill="white"/>
<path opacity="0.1" d="M64.0714 138.393V140.156H80.3144V138.393H64.0714Z" fill="black"/>
<path opacity="0.4" d="M80.3199 122.734V120.698H64.1915V122.734H80.3199Z" fill="white"/>
<path opacity="0.4" d="M79.0973 106.262H65.4086V137.17H79.0973V106.262Z" fill="white"/>
<path opacity="0.3" d="M78.0711 111.414H67.4826V137.17H78.0711V111.414Z" fill="#407BFF"/>
<path opacity="0.4" d="M113.073 138.393V105.045H96.9449V138.393H113.073Z" fill="white"/>
<path opacity="0.1" d="M89.522 138.393V140.156H120.496V138.393H89.522Z" fill="black"/>
<path opacity="0.4" d="M113.073 122.739V120.704H96.9449V122.739H113.073Z" fill="white"/>
<path opacity="0.4" d="M111.851 106.262H98.162V137.17H111.851V106.262Z" fill="white"/>
<path opacity="0.3" d="M110.825 111.414H100.236V137.17H110.825V111.414Z" fill="#407BFF"/>
<path opacity="0.4" d="M120.496 138.393V105.045H115.235V138.393H120.496Z" fill="white"/>
<path opacity="0.4" d="M120.496 122.734V120.698H115.235V122.734H120.496Z" fill="white"/>
<path opacity="0.4" d="M119.274 106.262H116.452V137.17H119.274V106.262Z" fill="white"/>
<path opacity="0.4" d="M94.7781 138.393V105.045H89.5166V138.393H94.7781Z" fill="white"/>
<path opacity="0.4" d="M94.7781 122.734V120.698H89.5166V122.734H94.7781Z" fill="white"/>
<path opacity="0.4" d="M93.5609 106.262H90.7392V137.17H93.5609V106.262Z" fill="white"/>
<path opacity="0.4" d="M113.073 183.29V149.942H96.9449V183.29H113.073Z" fill="white"/>
<path opacity="0.1" d="M89.522 183.29V185.053H120.496V183.29H89.522Z" fill="black"/>
<path opacity="0.4" d="M113.073 167.637V165.601H96.9449V167.637H113.073Z" fill="white"/>
<path opacity="0.4" d="M111.851 151.165H98.162V182.073H111.851V151.165Z" fill="white"/>
<path opacity="0.3" d="M110.825 156.317H100.236V182.073H110.825V156.317Z" fill="#407BFF"/>
<path opacity="0.4" d="M120.491 183.296V149.947H115.229V183.296H120.491Z" fill="white"/>
<path opacity="0.4" d="M120.491 167.642V165.606H115.229V167.642H120.491Z" fill="white"/>
<path opacity="0.4" d="M119.274 151.165H116.452V182.073H119.274V151.165Z" fill="white"/>
<path opacity="0.4" d="M94.7781 183.296V149.947H89.5166V183.296H94.7781Z" fill="white"/>
<path opacity="0.4" d="M94.7781 167.637V165.601H89.5166V167.637H94.7781Z" fill="white"/>
<path opacity="0.4" d="M93.5609 151.165H90.7392V182.073H93.5609V151.165Z" fill="white"/>
<path opacity="0.1" d="M86.078 194.195V191.226H61.9264V194.195H60.3872V197.165H87.6172V194.195H86.078Z" fill="black"/>
<path opacity="0.4" d="M74.005 149.948C76.8248 149.948 79.5291 151.068 81.523 153.062C83.517 155.055 84.6371 157.76 84.6371 160.58V191.226H63.351V160.58C63.3509 159.182 63.6267 157.797 64.1624 156.506C64.698 155.214 65.4832 154.041 66.4728 153.054C67.4624 152.066 68.637 151.284 69.9295 150.751C71.222 150.218 72.6069 149.945 74.005 149.948Z" fill="white"/>
<path opacity="0.5" d="M82.5303 161.573H65.4686V191.226H82.5303V161.573Z" fill="#407BFF"/>
<path opacity="0.5" d="M74.005 152.016C73.1516 152.015 72.3064 152.183 71.5177 152.509C70.7291 152.835 70.0125 153.313 69.4088 153.916C68.8051 154.52 68.3262 155.236 67.9994 156.024C67.6727 156.813 67.5045 157.658 67.5045 158.511H80.5C80.5 157.658 80.332 156.814 80.0056 156.026C79.6792 155.238 79.2007 154.522 78.5976 153.918C77.9945 153.315 77.2785 152.837 76.4905 152.51C75.7025 152.184 74.8579 152.016 74.005 152.016Z" fill="#407BFF"/>
<path d="M81.5752 176.397C81.5752 176.613 81.5112 176.824 81.3912 177.003C81.2713 177.183 81.1008 177.323 80.9013 177.405C80.7019 177.488 80.4824 177.51 80.2706 177.468C80.0589 177.425 79.8644 177.321 79.7117 177.169C79.5591 177.016 79.4551 176.822 79.413 176.61C79.3709 176.398 79.3925 176.179 79.4751 175.979C79.5577 175.78 79.6976 175.609 79.8771 175.489C80.0567 175.369 80.2677 175.305 80.4836 175.305C80.7731 175.305 81.0508 175.42 81.2555 175.625C81.4602 175.83 81.5752 176.107 81.5752 176.397Z" fill="#407BFF"/>
<path opacity="0.1" d="M71.6089 101.109V103.418H77.9129V101.109H71.6089Z" fill="black"/>
<path opacity="0.1" d="M101.197 97.9055V100.214H107.501V97.9055H101.197Z" fill="black"/>
<path opacity="0.1" d="M116.812 190.255V187.951H110.508V190.255H113.657V192.563H119.961V190.255H116.812Z" fill="black"/>
<path d="M209.745 56.1082H140.925V197.165H209.745V56.1082Z" fill="#407BFF"/>
<path d="M150.695 39.0574C150.63 39.0567 150.566 39.0689 150.506 39.0932C150.445 39.1176 150.391 39.1537 150.344 39.1993C150.298 39.245 150.262 39.2994 150.236 39.3594C150.211 39.4193 150.199 39.4837 150.199 39.5486V53.8377H151.186V39.5486C151.186 39.4183 151.135 39.2934 151.043 39.2013C150.95 39.1092 150.826 39.0574 150.695 39.0574Z" fill="#263238"/>
<path d="M199.653 49.2366C199.523 49.2366 199.398 49.2883 199.306 49.3804C199.214 49.4726 199.162 49.5975 199.162 49.7278V53.8377H200.15V49.7278C200.15 49.6628 200.137 49.5985 200.112 49.5385C200.087 49.4786 200.051 49.4242 200.004 49.3785C199.958 49.3328 199.903 49.2967 199.843 49.2724C199.783 49.248 199.718 49.2359 199.653 49.2366Z" fill="#263238"/>
<path d="M158.91 42.7852H157.922V53.8377H158.91V42.7852Z" fill="#263238"/>
<path d="M166.092 40.0453C167.539 44.0187 166.518 48.0413 163.811 49.0237C161.104 50.0062 157.736 47.5883 156.29 43.6094C154.843 39.6305 155.869 35.6189 158.577 34.6364C161.284 33.654 164.651 36.0719 166.092 40.0453Z" fill="#263238"/>
<path d="M209.745 128.852L234.634 145.548V197.165H209.745V128.852Z" fill="#407BFF"/>
<path opacity="0.1" d="M209.745 128.852L234.634 145.548V197.165H209.745V128.852Z" fill="black"/>
<path opacity="0.1" d="M228.723 182.417V179.912H221.884V182.417H225.306V184.922H232.139V182.417H228.723Z" fill="black"/>
<path d="M236.97 148.092L209.745 129.72V126.926L236.97 145.303V148.092Z" fill="#263238"/>
<path opacity="0.4" d="M230.327 172.303V150.297H213.446V172.303H230.327Z" fill="white"/>
<path opacity="0.4" d="M230.327 161.971V160.629H213.446V161.971H230.327Z" fill="white"/>
<path opacity="0.4" d="M229.596 151.105H214.172V171.501H229.596V151.105Z" fill="white"/>
<path opacity="0.3" d="M228.979 154.505H215.411V171.501H228.979V154.505Z" fill="#407BFF"/>
<path d="M209.745 56.1082H140.925L139.987 54.6127H210.684L209.745 56.1082Z" fill="#407BFF"/>
<path opacity="0.2" d="M209.745 56.1082H140.925L139.987 54.6127H210.684L209.745 56.1082Z" fill="black"/>
<path d="M211.088 54.6127H139.583L138.611 53.0572H212.059L211.088 54.6127Z" fill="#263238"/>
<path opacity="0.2" d="M148.981 59.8087H143.12V73.9231H148.981V59.8087Z" fill="black"/>
<path opacity="0.4" d="M148.114 61.8991H143.987V71.8436H148.114V61.8991Z" fill="#407BFF"/>
<path opacity="0.2" d="M207.551 59.8087H201.689V73.9231H207.551V59.8087Z" fill="black"/>
<path opacity="0.4" d="M206.678 61.8991H202.552V71.8436H206.678V61.8991Z" fill="#407BFF"/>
<path opacity="0.2" d="M199.162 59.8087H189.873V73.9231H199.162V59.8087Z" fill="black"/>
<path opacity="0.4" d="M197.792 61.8991H191.248V71.8436H197.792V61.8991Z" fill="#407BFF"/>
<path opacity="0.2" d="M160.798 59.8087H151.509V73.9231H160.798V59.8087Z" fill="black"/>
<path opacity="0.4" d="M159.428 61.8991H152.884V71.8436H159.428V61.8991Z" fill="#407BFF"/>
<path opacity="0.2" d="M187.084 59.8087H163.592V73.9231H187.084V59.8087Z" fill="black"/>
<path opacity="0.4" d="M183.607 61.8991H167.064V71.8436H183.607V61.8991Z" fill="#407BFF"/>
<path opacity="0.4" d="M172.342 125.872V85.9579H154.843V125.872H172.342Z" fill="white"/>
<path opacity="0.1" d="M146.793 125.867V126.926H180.392V125.867H146.793Z" fill="black"/>
<path opacity="0.4" d="M172.342 107.135V104.701H154.843V107.135H172.342Z" fill="white"/>
<path opacity="0.4" d="M171.015 87.4153H156.164V124.41H171.015V87.4153Z" fill="white"/>
<path opacity="0.3" d="M169.896 93.5828H158.413V124.41H169.896V93.5828Z" fill="#407BFF"/>
<path opacity="0.4" d="M180.387 125.867V85.9525H174.683V125.867H180.387Z" fill="white"/>
<path opacity="0.4" d="M180.387 107.13V104.695H174.683V107.13H180.387Z" fill="white"/>
<path opacity="0.4" d="M179.066 87.4153H176.009V124.41H179.066V87.4153Z" fill="white"/>
<path opacity="0.4" d="M152.496 125.872V85.9579H146.793V125.872H152.496Z" fill="white"/>
<path opacity="0.4" d="M152.496 107.13V104.695H146.793V107.13H152.496Z" fill="white"/>
<path opacity="0.4" d="M151.17 87.4153H148.114V124.41H151.17V87.4153Z" fill="white"/>
<path opacity="0.4" d="M172.342 175.567V135.653H154.843V175.567H172.342Z" fill="white"/>
<path opacity="0.1" d="M146.787 175.567V176.626H180.387V175.567H146.787Z" fill="black"/>
<path opacity="0.4" d="M172.342 156.83V154.396H154.843V156.83H172.342Z" fill="white"/>
<path opacity="0.4" d="M171.015 137.116H156.164V174.11H171.015V137.116Z" fill="white"/>
<path opacity="0.3" d="M169.896 143.283H158.413V174.11H169.896V143.283Z" fill="#407BFF"/>
<path opacity="0.4" d="M180.392 175.567V135.653H174.689V175.567H180.392Z" fill="white"/>
<path opacity="0.4" d="M180.392 156.83V154.396H174.689V156.83H180.392Z" fill="white"/>
<path opacity="0.4" d="M179.066 137.116H176.009V174.11H179.066V137.116Z" fill="white"/>
<path opacity="0.4" d="M152.496 175.573V135.658H146.793V175.573H152.496Z" fill="white"/>
<path opacity="0.4" d="M152.496 156.83V154.396H146.793V156.83H152.496Z" fill="white"/>
<path opacity="0.4" d="M151.17 137.116H148.114V174.11H151.17V137.116Z" fill="white"/>
<path opacity="0.4" d="M204.577 125.872V85.9579H187.078V125.872H204.577Z" fill="white"/>
<path opacity="0.1" d="M187.084 125.872V126.931H204.582V125.872H187.084Z" fill="black"/>
<path opacity="0.4" d="M204.577 107.13V104.695H187.078V107.13H204.577Z" fill="white"/>
<path opacity="0.4" d="M203.256 87.4153H188.405V124.41H203.256V87.4153Z" fill="white"/>
<path opacity="0.3" d="M202.137 93.5828H190.653V124.41H202.137V93.5828Z" fill="#407BFF"/>
<path opacity="0.1" d="M157.037 79.9433V77.438H150.199V79.9433H153.621V82.443H160.454V79.9433H157.037Z" fill="black"/>
<path opacity="0.1" d="M190.113 133.153V130.648H183.274V133.153H186.696V135.658H193.53V133.153H190.113Z" fill="black"/>
<path opacity="0.1" d="M175.649 76.1827V78.6879H182.488V76.1827H175.649Z" fill="black"/>
<path opacity="0.1" d="M149.08 181.926V184.431H155.919V181.926H149.08Z" fill="black"/>
<path opacity="0.1" d="M165.503 189.098V191.603H172.342V189.098H165.503Z" fill="black"/>
<path opacity="0.1" d="M212.731 142.519V145.024H219.57V142.519H212.731Z" fill="black"/>
<path opacity="0.1" d="M206.738 192.378V187.591H205.897V182.805H184.977V187.591H184.136V192.378H183.143V197.165H207.731V192.378H206.738Z" fill="black"/>
<path opacity="0.1" d="M205.897 182.805V141.204H184.971V182.805H205.897Z" fill="#263238"/>
<path opacity="0.3" d="M204.582 142.525H186.303V182.799H204.582V142.525Z" fill="#263238"/>
<g opacity="0.6">
<path d="M194.938 146.82H189.36V152.398H194.938V146.82Z" fill="#407BFF"/>
<path d="M201.52 146.82H195.942V152.398H201.52V146.82Z" fill="#407BFF"/>
<path d="M194.938 153.43H189.36V159.008H194.938V153.43Z" fill="#407BFF"/>
<path d="M201.52 153.43H195.942V159.008H201.52V153.43Z" fill="#407BFF"/>
</g>
<path d="M201.924 165.585C202.569 165.585 203.092 165.062 203.092 164.417C203.092 163.772 202.569 163.249 201.924 163.249C201.279 163.249 200.756 163.772 200.756 164.417C200.756 165.062 201.279 165.585 201.924 165.585Z" fill="#407BFF"/>
</svg>
