<svg width="248" height="209" viewBox="0 0 248 209" fill="none" xmlns="http://www.w3.org/2000/svg">
<path d="M244.687 65.8854C242.413 64.6316 241.373 65.6785 240.547 64.6316C239.722 63.5847 242.822 60.9267 236.615 58.2499C236.615 58.2499 236.199 52.4887 227.718 52.2818C219.236 52.075 221.511 58.043 219.236 59.4848C216.961 60.9267 216.337 58.6636 214.063 60.1117C211.788 61.5599 212.802 64.431 210.962 64.8448C209.261 65.2209 207.049 63.3779 204.944 64.1427C204.242 61.8127 203.27 59.5721 202.046 57.4663C194.364 44.3454 177.615 38.2959 164.502 34.6035C122.768 22.8618 112.673 51.6926 86.8056 67.5718C60.9383 83.451 30.5341 68.8256 15.7636 80.2287C0.993056 91.6319 -3.93464 119.961 3.27417 133.026C10.483 146.09 26.4255 150.347 28.8894 156.609C31.3532 162.872 30.5845 164.922 30.5845 164.922H224.038C225.55 164.922 229.545 156.866 230.339 155.299C234.8 146.391 235.342 137.552 227.51 130.706C219.948 124.099 206.873 119.942 205.953 107.662C205.033 95.3807 208.196 81.4198 206.06 68.9635H246.326C246.326 68.9635 246.962 67.1204 244.687 65.8854ZM85.4823 137.295H33.1365C33.1365 137.295 34.5859 136.267 35.8272 135.414C37.0686 134.562 39.1355 135.414 40.1689 135.414C41.2023 135.414 41.2023 134.16 43.4834 132.744C45.7646 131.327 48.241 133.565 50.0999 133.151C51.9588 132.737 50.9317 129.86 53.2065 128.418C55.4813 126.976 56.1052 129.239 58.38 127.791C60.6548 126.343 58.38 120.375 66.8617 120.582C75.3434 120.789 75.7593 126.556 75.7593 126.556C81.9661 129.227 78.8596 131.904 79.6913 132.932C80.5231 133.96 81.5502 132.932 83.8314 134.185C86.1125 135.439 85.4823 137.295 85.4823 137.295ZM170.381 45.6243H136.788C136.788 45.6243 137.715 44.9973 138.515 44.4394C139.315 43.8815 140.639 44.4394 141.3 44.4394C141.962 44.4394 141.968 43.6433 143.424 42.7217C144.879 41.8002 146.48 43.2483 147.677 42.985C148.874 42.7217 148.207 40.8724 149.668 39.9446C151.13 39.0168 151.527 40.4712 152.989 39.5497C154.451 38.6281 152.989 34.7915 158.434 34.9232C163.878 35.0548 164.143 38.7535 164.143 38.7535C168.125 40.4712 166.134 42.1889 166.663 42.8534C167.193 43.5179 167.861 42.8534 169.323 43.6433C170.784 44.4332 170.381 45.6243 170.381 45.6243Z" fill="#407BFF"/>
<path d="M108.577 13.6088C106.296 12.355 105.262 13.4019 104.437 12.355C103.611 11.3081 106.712 8.6501 100.505 5.97327C100.505 5.97327 100.089 0.212124 91.6073 0.00524955C83.1256 -0.201625 85.4004 5.76639 83.1256 7.20825C80.8508 8.6501 80.227 6.38702 77.9522 7.83514C75.6773 9.28326 76.6919 12.1544 74.8456 12.5682C72.9992 12.9819 70.5039 10.6875 68.2291 12.1544C65.9543 13.6214 65.948 14.8313 64.9145 14.8313C63.8811 14.8313 61.8142 14.01 60.5729 14.8313C59.3315 15.6525 57.8822 16.7119 57.8822 16.7119H110.228C110.228 16.7119 110.852 14.8626 108.577 13.6088Z" fill="#407BFF"/>
<g opacity="0.7">
<path d="M244.687 65.8854C242.413 64.6316 241.373 65.6785 240.547 64.6316C239.722 63.5847 242.822 60.9267 236.615 58.2499C236.615 58.2499 236.199 52.4887 227.718 52.2818C219.236 52.075 221.511 58.043 219.236 59.4848C216.961 60.9267 216.337 58.6636 214.063 60.1117C211.788 61.5599 212.802 64.431 210.962 64.8448C209.261 65.2209 207.049 63.3779 204.944 64.1427C204.242 61.8127 203.27 59.5721 202.046 57.4663C194.364 44.3454 177.615 38.2959 164.502 34.6035C122.768 22.8618 112.673 51.6926 86.8056 67.5718C60.9383 83.451 30.5341 68.8256 15.7636 80.2287C0.993056 91.6319 -3.93464 119.961 3.27417 133.026C10.483 146.09 26.4255 150.347 28.8894 156.609C31.3532 162.872 30.5845 164.922 30.5845 164.922H224.038C225.55 164.922 229.545 156.866 230.339 155.299C234.8 146.391 235.342 137.552 227.51 130.706C219.948 124.099 206.873 119.942 205.953 107.662C205.033 95.3807 208.196 81.4198 206.06 68.9635H246.326C246.326 68.9635 246.962 67.1204 244.687 65.8854ZM85.4823 137.295H33.1365C33.1365 137.295 34.5859 136.267 35.8272 135.414C37.0686 134.562 39.1355 135.414 40.1689 135.414C41.2023 135.414 41.2023 134.16 43.4834 132.744C45.7646 131.327 48.241 133.565 50.0999 133.151C51.9588 132.737 50.9317 129.86 53.2065 128.418C55.4813 126.976 56.1052 129.239 58.38 127.791C60.6548 126.343 58.38 120.375 66.8617 120.582C75.3434 120.789 75.7593 126.556 75.7593 126.556C81.9661 129.227 78.8596 131.904 79.6913 132.932C80.5231 133.96 81.5502 132.932 83.8314 134.185C86.1125 135.439 85.4823 137.295 85.4823 137.295ZM170.381 45.6243H136.788C136.788 45.6243 137.715 44.9973 138.515 44.4394C139.315 43.8815 140.639 44.4394 141.3 44.4394C141.962 44.4394 141.968 43.6433 143.424 42.7217C144.879 41.8002 146.48 43.2483 147.677 42.985C148.874 42.7217 148.207 40.8724 149.668 39.9446C151.13 39.0168 151.527 40.4712 152.989 39.5497C154.451 38.6281 152.989 34.7915 158.434 34.9232C163.878 35.0548 164.143 38.7535 164.143 38.7535C168.125 40.4712 166.134 42.1889 166.663 42.8534C167.193 43.5179 167.861 42.8534 169.323 43.6433C170.784 44.4332 170.381 45.6243 170.381 45.6243Z" fill="white"/>
<path d="M108.577 13.6088C106.296 12.355 105.262 13.4019 104.437 12.355C103.611 11.3081 106.712 8.6501 100.505 5.97327C100.505 5.97327 100.089 0.212124 91.6073 0.00524955C83.1256 -0.201625 85.4004 5.76639 83.1256 7.20825C80.8508 8.6501 80.227 6.38702 77.9522 7.83514C75.6773 9.28326 76.6919 12.1544 74.8456 12.5682C72.9992 12.9819 70.5039 10.6875 68.2291 12.1544C65.9543 13.6214 65.948 14.8313 64.9145 14.8313C63.8811 14.8313 61.8142 14.01 60.5729 14.8313C59.3315 15.6525 57.8822 16.7119 57.8822 16.7119H110.228C110.228 16.7119 110.852 14.8626 108.577 13.6088Z" fill="white"/>
</g>
<path d="M240.85 124.456L247 140.849H242.81L238.619 128.067L240.85 124.456Z" fill="white" stroke="#407BFF" stroke-width="0.887535" stroke-linecap="round" stroke-linejoin="round"/>
<path d="M244.202 164.935H188.807V136.774L240.239 128.957L244.202 139.827V164.935Z" fill="#407BFF"/>
<path d="M196.438 79.7147H124.186V164.935H196.438V79.7147Z" fill="#407BFF"/>
<path d="M119.737 86.6042L116.662 82.6423L160.715 48.8089L203.961 82.0279L200.893 85.9899L160.715 55.1279L119.737 86.6042Z" fill="#407BFF"/>
<path d="M183.217 79.7147H110.965V164.935H183.217V79.7147Z" fill="white" stroke="#407BFF" stroke-width="0.887535" stroke-linecap="round" stroke-linejoin="round"/>
<path d="M147.091 51.9684L110.965 79.7147H183.217L147.091 51.9684Z" fill="white" stroke="#407BFF" stroke-width="0.887535" stroke-linejoin="round"/>
<g style="mix-blend-mode:multiply">
<path d="M147.091 51.9684L110.965 79.7147V86.0338L119.195 79.7147L147.091 58.2875L174.994 79.7147L183.217 86.0338V79.7147L147.091 51.9684Z" fill="#407BFF"/>
</g>
<path d="M238.619 136.774H183.217V164.935H238.619V136.774Z" fill="white" stroke="#407BFF" stroke-width="0.887535" stroke-linecap="round" stroke-linejoin="round"/>
<path d="M233.036 136.774H188.807V164.935H233.036V136.774Z" fill="#407BFF" stroke="#407BFF" stroke-width="0.887535" stroke-linecap="round" stroke-linejoin="round"/>
<g style="mix-blend-mode:multiply">
<path d="M238.619 136.774H183.217V142.811H238.619V136.774Z" fill="#407BFF"/>
</g>
<path d="M188.807 145.018H233.03" stroke="#407BFF" stroke-width="0.887535" stroke-linecap="round" stroke-linejoin="round"/>
<path d="M188.807 149.187H233.03" stroke="#407BFF" stroke-width="0.887535" stroke-linecap="round" stroke-linejoin="round"/>
<path d="M188.807 153.356H233.03" stroke="#407BFF" stroke-width="0.887535" stroke-linecap="round" stroke-linejoin="round"/>
<path d="M188.807 157.525H233.03" stroke="#407BFF" stroke-width="0.887535" stroke-linecap="round" stroke-linejoin="round"/>
<path d="M188.807 161.693H233.03" stroke="#407BFF" stroke-width="0.887535" stroke-linecap="round" stroke-linejoin="round"/>
<path d="M131.451 133.439H116.926V164.934H131.451V133.439Z" fill="#407BFF"/>
<path d="M153.607 133.439H139.082V155.299H153.607V133.439Z" fill="white" stroke="#407BFF" stroke-width="0.887535" stroke-linecap="round" stroke-linejoin="round"/>
<path d="M153.607 143.445H139.082V145.3H153.607V143.445Z" fill="#407BFF"/>
<path d="M147.28 133.439H145.415V155.299H147.28V133.439Z" fill="#407BFF"/>
<path d="M180.237 133.439H165.712V155.299H180.237V133.439Z" fill="white" stroke="#407BFF" stroke-width="0.887535" stroke-linecap="round" stroke-linejoin="round"/>
<path d="M180.237 143.445H165.712V145.3H180.237V143.445Z" fill="#407BFF"/>
<path d="M173.91 133.439H172.045V155.299H173.91V133.439Z" fill="#407BFF"/>
<path d="M161.521 133.439H158.736V164.934H161.521V133.439Z" fill="white" stroke="#407BFF" stroke-width="0.887535" stroke-linecap="round" stroke-linejoin="round"/>
<path d="M137.173 133.439H134.388V164.934H137.173V133.439Z" fill="white" stroke="#407BFF" stroke-width="0.887535" stroke-linecap="round" stroke-linejoin="round"/>
<path d="M180.237 134.737H114.318V138.812H180.237V134.737Z" fill="#407BFF"/>
<path d="M180.237 132.7H114.318V136.774H180.237V132.7Z" fill="#407BFF" stroke="#407BFF" stroke-width="0.887535" stroke-linecap="round" stroke-linejoin="round"/>
<path d="M106.113 86.6042L103.038 82.6423L147.091 48.8089L190.338 82.0279L187.269 85.9899L147.091 55.1279L106.113 86.6042Z" fill="white" stroke="#407BFF" stroke-width="0.887535" stroke-linejoin="round"/>
<path d="M238.619 140.849H177.71L183.299 124.456H240.85L238.619 140.849Z" fill="#407BFF"/>
<path d="M190.338 82.0279H202.815L160.715 48.8089H147.091L190.338 82.0279Z" fill="#407BFF"/>
<path d="M187.269 85.9899H200.893L203.961 82.0279H190.338L187.269 85.9899Z" fill="#407BFF"/>
<path d="M124.746 92.3152H116.926V104.916H124.746V92.3152Z" fill="white" stroke="#407BFF" stroke-width="0.887535" stroke-linecap="round" stroke-linejoin="round"/>
<path d="M124.746 98.6155H116.926V104.916H124.746V98.6155Z" fill="#407BFF"/>
<path d="M124.746 97.9134H116.926V99.3176H124.746V97.9134Z" fill="white" stroke="#407BFF" stroke-width="0.887535" stroke-linecap="round" stroke-linejoin="round"/>
<path d="M124.746 110.47H116.926V123.071H124.746V110.47Z" fill="white" stroke="#407BFF" stroke-width="0.887535" stroke-linecap="round" stroke-linejoin="round"/>
<path d="M124.746 116.708H116.926V123.064H124.746V116.708Z" fill="#407BFF"/>
<path d="M177.628 92.3152H169.808V104.916H177.628V92.3152Z" fill="white" stroke="#407BFF" stroke-width="0.887535" stroke-linecap="round" stroke-linejoin="round"/>
<path d="M177.628 98.6155H169.808V104.916H177.628V98.6155Z" fill="#407BFF"/>
<path d="M177.628 110.47H169.808V123.071H177.628V110.47Z" fill="white" stroke="#407BFF" stroke-width="0.887535" stroke-linecap="round" stroke-linejoin="round"/>
<path d="M177.628 116.006H169.808V123.064H177.628V116.006Z" fill="#407BFF"/>
<path d="M150.254 92.3152H142.434V104.916H150.254V92.3152Z" fill="white" stroke="#407BFF" stroke-width="0.887535" stroke-linecap="round" stroke-linejoin="round"/>
<path d="M150.254 98.6155H142.434V104.916H150.254V98.6155Z" fill="#407BFF"/>
<path d="M150.254 110.47H142.434V123.071H150.254V110.47Z" fill="white" stroke="#407BFF" stroke-width="0.887535" stroke-linecap="round" stroke-linejoin="round"/>
<path d="M150.254 116.006H142.434V123.064H150.254V116.006Z" fill="#407BFF"/>
<path d="M150.254 97.9134H142.434V99.3176H150.254V97.9134Z" fill="white" stroke="#407BFF" stroke-width="0.887535" stroke-linecap="round" stroke-linejoin="round"/>
<path d="M177.628 97.9134H169.808V99.3176H177.628V97.9134Z" fill="white" stroke="#407BFF" stroke-width="0.887535" stroke-linecap="round" stroke-linejoin="round"/>
<path d="M124.746 115.303H116.926V116.708H124.746V115.303Z" fill="white" stroke="#407BFF" stroke-width="0.887535" stroke-linecap="round" stroke-linejoin="round"/>
<path d="M150.254 115.303H142.434V116.708H150.254V115.303Z" fill="white" stroke="#407BFF" stroke-width="0.887535" stroke-linecap="round" stroke-linejoin="round"/>
<path d="M177.628 115.303H169.808V116.708H177.628V115.303Z" fill="white" stroke="#407BFF" stroke-width="0.887535" stroke-linecap="round" stroke-linejoin="round"/>
<path d="M117.336 83.5136V86.6042" stroke="#407BFF" stroke-width="0.887535" stroke-linecap="round" stroke-linejoin="round"/>
<path d="M122.925 83.5136V86.6042" stroke="#407BFF" stroke-width="0.887535" stroke-linecap="round" stroke-linejoin="round"/>
<path d="M119.737 86.6042V89.6948" stroke="#407BFF" stroke-width="0.887535" stroke-linecap="round" stroke-linejoin="round"/>
<path d="M126.12 86.6042V89.6948" stroke="#407BFF" stroke-width="0.887535" stroke-linecap="round" stroke-linejoin="round"/>
<path d="M114.859 86.6042H127.626" stroke="#407BFF" stroke-width="0.887535" stroke-linecap="round" stroke-linejoin="round"/>
<path d="M117.336 124.795V127.885" stroke="#407BFF" stroke-width="0.887535" stroke-linecap="round" stroke-linejoin="round"/>
<path d="M122.925 124.795V127.885" stroke="#407BFF" stroke-width="0.887535" stroke-linecap="round" stroke-linejoin="round"/>
<path d="M119.737 127.885V130.976" stroke="#407BFF" stroke-width="0.887535" stroke-linecap="round" stroke-linejoin="round"/>
<path d="M126.12 127.885V130.976" stroke="#407BFF" stroke-width="0.887535" stroke-linecap="round" stroke-linejoin="round"/>
<path d="M114.859 127.885H127.626" stroke="#407BFF" stroke-width="0.887535" stroke-linecap="round" stroke-linejoin="round"/>
<path d="M128.66 95.5186V98.6155" stroke="#407BFF" stroke-width="0.887535" stroke-linecap="round" stroke-linejoin="round"/>
<path d="M134.249 95.5186V98.6155" stroke="#407BFF" stroke-width="0.887535" stroke-linecap="round" stroke-linejoin="round"/>
<path d="M131.06 98.6155V101.706" stroke="#407BFF" stroke-width="0.887535" stroke-linecap="round" stroke-linejoin="round"/>
<path d="M137.444 98.6155V101.706" stroke="#407BFF" stroke-width="0.887535" stroke-linecap="round" stroke-linejoin="round"/>
<path d="M126.183 98.6155H138.95" stroke="#407BFF" stroke-width="0.887535" stroke-linecap="round" stroke-linejoin="round"/>
<path d="M128.66 101.706H138.95" stroke="#407BFF" stroke-width="0.887535" stroke-linecap="round" stroke-linejoin="round"/>
<path d="M128.66 101.819V104.909" stroke="#407BFF" stroke-width="0.887535" stroke-linecap="round" stroke-linejoin="round"/>
<path d="M134.249 101.819V104.909" stroke="#407BFF" stroke-width="0.887535" stroke-linecap="round" stroke-linejoin="round"/>
<path d="M131.06 104.91V108" stroke="#407BFF" stroke-width="0.887535" stroke-linecap="round" stroke-linejoin="round"/>
<path d="M137.444 104.91V108" stroke="#407BFF" stroke-width="0.887535" stroke-linecap="round" stroke-linejoin="round"/>
<path d="M126.183 104.91H138.95" stroke="#407BFF" stroke-width="0.887535" stroke-linecap="round" stroke-linejoin="round"/>
<path d="M156.499 116.143V119.234" stroke="#407BFF" stroke-width="0.887535" stroke-linecap="round" stroke-linejoin="round"/>
<path d="M162.089 116.143V119.234" stroke="#407BFF" stroke-width="0.887535" stroke-linecap="round" stroke-linejoin="round"/>
<path d="M158.9 119.234V122.325" stroke="#407BFF" stroke-width="0.887535" stroke-linecap="round" stroke-linejoin="round"/>
<path d="M165.283 119.234V122.325" stroke="#407BFF" stroke-width="0.887535" stroke-linecap="round" stroke-linejoin="round"/>
<path d="M154.023 119.234H166.789" stroke="#407BFF" stroke-width="0.887535" stroke-linecap="round" stroke-linejoin="round"/>
<path d="M156.499 122.325H166.789" stroke="#407BFF" stroke-width="0.887535" stroke-linecap="round" stroke-linejoin="round"/>
<path d="M156.499 122.444V125.534" stroke="#407BFF" stroke-width="0.887535" stroke-linecap="round" stroke-linejoin="round"/>
<path d="M162.089 122.444V125.534" stroke="#407BFF" stroke-width="0.887535" stroke-linecap="round" stroke-linejoin="round"/>
<path d="M158.9 125.534V128.625" stroke="#407BFF" stroke-width="0.887535" stroke-linecap="round" stroke-linejoin="round"/>
<path d="M165.283 125.534V128.625" stroke="#407BFF" stroke-width="0.887535" stroke-linecap="round" stroke-linejoin="round"/>
<path d="M154.023 125.534H166.789" stroke="#407BFF" stroke-width="0.887535" stroke-linecap="round" stroke-linejoin="round"/>
<path d="M6.60131 173.667C18.9899 178.764 50.8246 173.247 47.5605 179.19C44.2963 185.133 19.3617 182.901 12.2726 189.327C5.18349 195.753 37.4341 195.238 36.2935 197.188C35.153 199.138 6.77775 200.473 8.64297 203.1H199.84C200.149 201.044 197.95 198.548 194.358 196.831C165.888 195.671 69.4137 191.421 79.5212 187.315C91.3678 182.513 130.046 177.711 137.116 173.949C144.186 170.188 112.868 169.768 107.625 168.1C105.937 167.561 105.735 167.035 106.283 166.577L107.184 166.633V166.063C108.616 165.547 110.093 165.163 111.595 164.916H107.184V163.831L106.554 164.226L105.477 164.916H105.13C105.572 163.558 105.871 162.159 106.025 160.741C106.271 158.289 102.811 163.831 102.811 163.831C102.811 163.831 103.303 161.95 102.811 160.741C102.32 159.531 100.833 162.377 100.833 162.377C100.833 162.377 102.565 155.575 100.833 151.155C99.0997 146.736 97.1462 162.377 97.1462 162.377C97.1462 162.377 96.8816 156.308 94.6572 156.189C92.855 156.089 93.9703 160.214 94.4618 161.781C94.0805 160.902 93.5181 160.112 92.8109 159.462C91.2166 157.945 92.8109 162.966 92.8109 162.966C92.8109 162.966 92.1807 161.474 88.0155 160.741C83.8503 160.007 89.7169 163.988 89.7169 163.988C87.9113 163.472 86.0791 163.054 84.2283 162.734C83.3083 162.584 83.2327 162.809 83.5352 163.185L82.9366 163.568L81.0083 164.822C81.6399 162.981 82.0627 161.076 82.2686 159.142C82.5837 156.008 78.179 163.079 78.179 163.079C78.179 163.079 78.8091 160.703 78.179 159.142C77.5489 157.581 75.6584 161.223 75.6584 161.223C75.6584 161.223 77.8639 152.566 75.6584 146.936C73.4529 141.307 70.9639 161.223 70.9639 161.223C70.9639 161.223 70.6236 153.506 67.8132 153.35C65.5258 153.224 66.931 158.434 67.5611 160.446C67.0762 159.336 66.3636 158.339 65.4691 157.518C63.4337 155.588 65.4691 161.976 65.4691 161.976C65.4691 161.976 64.6688 160.095 59.363 159.142C54.0572 158.189 61.5244 163.28 61.5244 163.28C59.2256 162.624 56.8927 162.092 54.5361 161.687C51.0073 161.11 57.2205 164.928 57.2205 164.928H10.3822C10.3822 164.928 -5.77465 168.577 6.60131 173.667ZM83.7431 163.436C84.3754 163.993 85.0519 164.498 85.7659 164.947H83.7431V163.436Z" fill="#407BFF"/>
<path d="M159.455 174.426C152.296 177.723 134.52 181.184 134.52 181.184C131.691 181.566 135.522 185.171 155.17 183.384L188.794 164.935H124.362C126.517 166.038 141.867 168.583 150.601 168.583C159.335 168.583 166.613 171.122 159.455 174.426Z" fill="#407BFF"/>
<path d="M210.931 164.935H223.634C217.257 164.69 210.931 164.935 210.931 164.935Z" fill="#407BFF"/>
<path d="M231.889 165.668L201.712 185.014C205.537 184.87 209.538 184.776 213.414 184.682C230.131 184.28 224.063 177.065 225.197 174.52C226.331 171.974 235.821 172.394 236.577 168.15C236.792 166.947 234.819 166.169 231.889 165.668Z" fill="#407BFF"/>
<g opacity="0.3">
<path d="M6.60131 173.667C18.9899 178.764 50.8246 173.247 47.5605 179.19C44.2963 185.133 19.3617 182.901 12.2726 189.327C5.18349 195.753 37.4341 195.238 36.2935 197.188C35.153 199.138 6.77775 200.473 8.64297 203.1H199.84C200.149 201.044 197.95 198.548 194.358 196.831C165.888 195.671 69.4137 191.421 79.5212 187.315C91.3678 182.513 130.046 177.711 137.116 173.949C144.186 170.188 112.868 169.768 107.625 168.1C105.937 167.561 105.735 167.035 106.283 166.577L107.184 166.633V166.063C108.616 165.547 110.093 165.163 111.595 164.916H107.184V163.831L106.554 164.226L105.477 164.916H105.13C105.572 163.558 105.871 162.159 106.025 160.741C106.271 158.289 102.811 163.831 102.811 163.831C102.811 163.831 103.303 161.95 102.811 160.741C102.32 159.531 100.833 162.377 100.833 162.377C100.833 162.377 102.565 155.575 100.833 151.155C99.0997 146.736 97.1462 162.377 97.1462 162.377C97.1462 162.377 96.8816 156.308 94.6572 156.189C92.855 156.089 93.9703 160.214 94.4618 161.781C94.0805 160.902 93.5181 160.112 92.8109 159.462C91.2166 157.945 92.8109 162.966 92.8109 162.966C92.8109 162.966 92.1807 161.474 88.0155 160.741C83.8503 160.007 89.7169 163.988 89.7169 163.988C87.9113 163.472 86.0791 163.054 84.2283 162.734C83.3083 162.584 83.2327 162.809 83.5352 163.185L82.9366 163.568L81.0083 164.822C81.6399 162.981 82.0627 161.076 82.2686 159.142C82.5837 156.008 78.179 163.079 78.179 163.079C78.179 163.079 78.8091 160.703 78.179 159.142C77.5489 157.581 75.6584 161.223 75.6584 161.223C75.6584 161.223 77.8639 152.566 75.6584 146.936C73.4529 141.307 70.9639 161.223 70.9639 161.223C70.9639 161.223 70.6236 153.506 67.8132 153.35C65.5258 153.224 66.931 158.434 67.5611 160.446C67.0762 159.336 66.3636 158.339 65.4691 157.518C63.4337 155.588 65.4691 161.976 65.4691 161.976C65.4691 161.976 64.6688 160.095 59.363 159.142C54.0572 158.189 61.5244 163.28 61.5244 163.28C59.2256 162.624 56.8927 162.092 54.5361 161.687C51.0073 161.11 57.2205 164.928 57.2205 164.928H10.3822C10.3822 164.928 -5.77465 168.577 6.60131 173.667ZM83.7431 163.436C84.3754 163.993 85.0519 164.498 85.7659 164.947H83.7431V163.436Z" fill="white"/>
<path d="M159.455 174.426C152.296 177.723 134.52 181.184 134.52 181.184C131.691 181.566 135.522 185.171 155.17 183.384L188.794 164.935H124.362C126.517 166.038 141.867 168.583 150.601 168.583C159.335 168.583 166.613 171.122 159.455 174.426Z" fill="white"/>
<path d="M210.931 164.935H223.634C217.257 164.69 210.931 164.935 210.931 164.935Z" fill="white"/>
<path d="M231.889 165.668L201.712 185.014C205.537 184.87 209.538 184.776 213.414 184.682C230.131 184.28 224.063 177.065 225.197 174.52C226.331 171.974 235.821 172.394 236.577 168.15C236.792 166.947 234.819 166.169 231.889 165.668Z" fill="white"/>
</g>
<path d="M47.1256 59.4974V110.063H121.06V59.4974H47.1256ZM53.9942 65.7099C53.5904 65.7099 53.1956 65.5908 52.8599 65.3676C52.5241 65.1444 52.2625 64.8272 52.1079 64.456C51.9534 64.0849 51.913 63.6765 51.9917 63.2825C52.0705 62.8885 52.265 62.5266 52.5505 62.2425C52.836 61.9585 53.1998 61.765 53.5959 61.6867C53.9919 61.6083 54.4024 61.6485 54.7755 61.8022C55.1485 61.956 55.4674 62.2163 55.6917 62.5503C55.9161 62.8843 56.0358 63.277 56.0358 63.6787C56.0358 64.2174 55.8207 64.7341 55.4378 65.115C55.055 65.4959 54.5357 65.7099 53.9942 65.7099ZM114.122 65.7099C113.718 65.7099 113.324 65.5908 112.988 65.3676C112.652 65.1444 112.39 64.8272 112.236 64.456C112.081 64.0849 112.041 63.6765 112.12 63.2825C112.199 62.8885 112.393 62.5266 112.679 62.2425C112.964 61.9585 113.328 61.765 113.724 61.6867C114.12 61.6083 114.53 61.6485 114.904 61.8022C115.277 61.956 115.595 62.2163 115.82 62.5503C116.044 62.8843 116.164 63.277 116.164 63.6787C116.162 64.2169 115.947 64.7326 115.564 65.1132C115.182 65.4937 114.663 65.7082 114.122 65.7099Z" fill="#407BFF" stroke="#407BFF" stroke-miterlimit="10"/>
<path d="M116.164 63.6788C116.164 64.0805 116.044 64.4732 115.82 64.8072C115.595 65.1412 115.277 65.4016 114.904 65.5553C114.53 65.709 114.12 65.7493 113.724 65.6709C113.328 65.5925 112.964 65.3991 112.679 65.115C112.393 64.8309 112.199 64.469 112.12 64.075C112.041 63.681 112.081 63.2726 112.236 62.9015C112.39 62.5304 112.652 62.2131 112.988 61.9899C113.324 61.7668 113.718 61.6476 114.122 61.6476H53.9942C54.398 61.6476 54.7927 61.7668 55.1284 61.9899C55.4642 62.2131 55.7259 62.5304 55.8804 62.9015C56.0349 63.2726 56.0754 63.681 55.9966 64.075C55.9178 64.469 55.7234 64.8309 55.4378 65.115C55.1523 65.3991 54.7885 65.5925 54.3925 65.6709C53.9964 65.7493 53.5859 65.709 53.2129 65.5553C52.8398 65.4016 52.5209 65.1412 52.2966 64.8072C52.0722 64.4732 51.9525 64.0805 51.9525 63.6788C51.9525 63.1401 52.1676 62.6235 52.5505 62.2425C52.9334 61.8616 53.4527 61.6476 53.9942 61.6476H49.2555V107.273H118.231V61.6476H114.122C114.664 61.6476 115.183 61.8616 115.566 62.2425C115.949 62.6235 116.164 63.1401 116.164 63.6788Z" fill="#407BFF"/>
<path d="M53.9942 39.9383C53.4074 39.9396 52.8342 40.1138 52.347 40.439C51.8597 40.7642 51.4803 41.2258 51.2566 41.7654C51.0329 42.305 50.9751 42.8985 51.0903 43.4709C51.2055 44.0432 51.4887 44.5687 51.904 44.9811C52.3194 45.3934 52.8482 45.674 53.4238 45.7874C53.9993 45.9008 54.5957 45.842 55.1377 45.6183C55.6797 45.3946 56.1428 45.0162 56.4687 44.5308C56.7945 44.0453 56.9684 43.4747 56.9684 42.891C56.9684 42.5027 56.8914 42.1182 56.7419 41.7596C56.5923 41.401 56.3732 41.0752 56.0969 40.8009C55.8206 40.5267 55.4927 40.3093 55.1319 40.1613C54.7711 40.0133 54.3845 39.9375 53.9942 39.9383ZM53.9942 44.8594C53.6031 44.8582 53.2212 44.7417 52.8966 44.5247C52.5721 44.3076 52.3194 43.9997 52.1706 43.64C52.0218 43.2802 51.9836 42.8846 52.0606 42.5031C52.1377 42.1217 52.3266 41.7716 52.6036 41.4969C52.8805 41.2222 53.2331 41.0354 53.6168 40.9599C54.0004 40.8845 54.3979 40.9238 54.7591 41.073C55.1203 41.2222 55.4289 41.4745 55.6461 41.798C55.8632 42.1216 55.9791 42.5019 55.9791 42.891C55.9808 43.1514 55.9307 43.4095 55.8316 43.6505C55.7326 43.8916 55.5867 44.1107 55.4022 44.2954C55.2177 44.4801 54.9983 44.6267 54.7567 44.7267C54.515 44.8268 54.2559 44.8783 53.9942 44.8782V44.8594Z" fill="white" stroke="#407BFF" stroke-width="0.916642" stroke-linecap="round" stroke-linejoin="round"/>
<path d="M53.9942 47.0285C53.4056 47.0285 52.8303 47.2022 52.3411 47.5276C51.8518 47.853 51.4706 48.3155 51.2457 48.8565C51.0208 49.3976 50.9622 49.9928 51.0775 50.567C51.1928 51.1411 51.4767 51.6683 51.8933 52.0819C52.3099 52.4955 52.8404 52.7768 53.4178 52.8903C53.9952 53.0037 54.5934 52.9442 55.1367 52.7193C55.6801 52.4944 56.1442 52.1142 56.4702 51.6267C56.7963 51.1393 56.9697 50.5666 56.9684 49.9811C56.9684 49.5929 56.8914 49.2084 56.7419 48.8498C56.5924 48.4911 56.3732 48.1653 56.0969 47.8911C55.8206 47.6168 55.4927 47.3995 55.1319 47.2514C54.7711 47.1034 54.3845 47.0277 53.9942 47.0285ZM53.9942 51.9559C53.6016 51.9559 53.2178 51.84 52.8914 51.6231C52.565 51.4061 52.3105 51.0977 52.1603 50.7368C52.0101 50.376 51.9708 49.979 52.0474 49.5959C52.124 49.2128 52.313 48.861 52.5906 48.5848C52.8682 48.3086 53.2219 48.1206 53.6069 48.0444C53.992 47.9682 54.3911 48.0073 54.7538 48.1568C55.1165 48.3062 55.4265 48.5593 55.6446 48.8841C55.8627 49.2088 55.9791 49.5906 55.9791 49.9811C55.9791 50.5049 55.77 51.0072 55.3977 51.3775C55.0255 51.7478 54.5206 51.9559 53.9942 51.9559Z" fill="white" stroke="#407BFF" stroke-width="0.916642" stroke-linecap="round" stroke-linejoin="round"/>
<path d="M53.9942 53.2786C53.4074 53.2798 52.8342 53.4541 52.347 53.7793C51.8597 54.1045 51.4803 54.566 51.2566 55.1057C51.0329 55.6453 50.9751 56.2388 51.0903 56.8111C51.2055 57.3835 51.4887 57.909 51.904 58.3213C52.3194 58.7336 52.8482 59.0142 53.4238 59.1276C53.9993 59.2411 54.5957 59.1822 55.1377 58.9586C55.6797 58.7349 56.1428 58.3565 56.4687 57.871C56.7945 57.3856 56.9684 56.815 56.9684 56.2313C56.9684 55.843 56.8914 55.4585 56.7419 55.0999C56.5923 54.7412 56.3732 54.4155 56.0969 54.1412C55.8206 53.8669 55.4927 53.6496 55.1319 53.5016C54.7711 53.3535 54.3845 53.2778 53.9942 53.2786ZM53.9942 58.1997C53.6031 58.1985 53.2212 58.082 52.8966 57.8649C52.5721 57.6479 52.3194 57.34 52.1706 56.9802C52.0218 56.6204 51.9836 56.2248 52.0606 55.8434C52.1377 55.462 52.3266 55.1118 52.6036 54.8372C52.8805 54.5625 53.2331 54.3756 53.6168 54.3002C54.0004 54.2248 54.3979 54.2641 54.7591 54.4133C55.1203 54.5624 55.4289 54.8147 55.6461 55.1383C55.8632 55.4619 55.9791 55.8422 55.9791 56.2313C55.9774 56.7539 55.7676 57.2546 55.3955 57.6235C55.0234 57.9925 54.5195 58.1997 53.9942 58.1997Z" fill="white" stroke="#407BFF" stroke-width="0.916642" stroke-linecap="round" stroke-linejoin="round"/>
<path d="M53.9942 49.6614C53.8555 49.6614 53.7225 49.6066 53.6244 49.509C53.5263 49.4114 53.4712 49.2791 53.4712 49.1411V44.2701C53.4712 44.1321 53.5263 43.9998 53.6244 43.9022C53.7225 43.8046 53.8555 43.7498 53.9942 43.7498C54.1335 43.7498 54.2672 43.8044 54.3663 43.9018C54.4654 43.9992 54.5219 44.1316 54.5235 44.2701V49.1411C54.5219 49.2797 54.4654 49.412 54.3663 49.5094C54.2672 49.6068 54.1335 49.6614 53.9942 49.6614Z" fill="white" stroke="#407BFF" stroke-width="0.916642" stroke-linecap="round" stroke-linejoin="round"/>
<path d="M53.9942 56.3629C53.8555 56.3629 53.7225 56.3081 53.6244 56.2105C53.5263 56.1129 53.4712 55.9806 53.4712 55.8426V50.9716C53.4712 50.8336 53.5263 50.7013 53.6244 50.6037C53.7225 50.5061 53.8555 50.4513 53.9942 50.4513C54.1335 50.4513 54.2672 50.5059 54.3663 50.6033C54.4654 50.7007 54.5219 50.8331 54.5235 50.9716V55.8426C54.5219 55.9812 54.4654 56.1135 54.3663 56.2109C54.2672 56.3083 54.1335 56.3629 53.9942 56.3629Z" fill="white" stroke="#407BFF" stroke-width="0.916642" stroke-linecap="round" stroke-linejoin="round"/>
<path d="M53.9942 63.0769C53.8555 63.0769 53.7225 63.0221 53.6244 62.9245C53.5263 62.827 53.4712 62.6946 53.4712 62.5566V57.6857C53.4712 57.6173 53.4847 57.5497 53.511 57.4865C53.5373 57.4234 53.5758 57.3661 53.6244 57.3177C53.6729 57.2694 53.7306 57.2311 53.7941 57.205C53.8575 57.1788 53.9255 57.1653 53.9942 57.1653C54.1335 57.1653 54.2672 57.22 54.3663 57.3174C54.4654 57.4148 54.5219 57.5471 54.5235 57.6857V62.5566C54.5219 62.6952 54.4654 62.8275 54.3663 62.9249C54.2672 63.0223 54.1335 63.077 53.9942 63.0769Z" fill="white" stroke="#407BFF" stroke-width="0.916642" stroke-linecap="round" stroke-linejoin="round"/>
<path d="M114.122 39.9383C113.535 39.9396 112.962 40.1138 112.475 40.439C111.988 40.7642 111.608 41.2258 111.385 41.7654C111.161 42.305 111.103 42.8985 111.218 43.4709C111.334 44.0432 111.617 44.5687 112.032 44.9811C112.447 45.3934 112.976 45.674 113.552 45.7874C114.127 45.9008 114.724 45.842 115.266 45.6183C115.808 45.3946 116.271 45.0162 116.597 44.5308C116.923 44.0453 117.096 43.4747 117.096 42.891C117.096 42.5027 117.02 42.1182 116.87 41.7596C116.72 41.401 116.501 41.0752 116.225 40.8009C115.949 40.5267 115.621 40.3093 115.26 40.1613C114.899 40.0133 114.513 39.9375 114.122 39.9383ZM114.122 44.8594C113.731 44.8582 113.349 44.7417 113.025 44.5247C112.7 44.3076 112.447 43.9997 112.299 43.64C112.15 43.2802 112.112 42.8846 112.189 42.5031C112.266 42.1217 112.455 41.7716 112.732 41.4969C113.009 41.2222 113.361 41.0354 113.745 40.9599C114.128 40.8845 114.526 40.9238 114.887 41.073C115.248 41.2222 115.557 41.4745 115.774 41.798C115.991 42.1216 116.107 42.5019 116.107 42.891C116.109 43.1514 116.059 43.4095 115.96 43.6505C115.861 43.8916 115.715 44.1107 115.53 44.2954C115.346 44.4801 115.126 44.6267 114.885 44.7267C114.643 44.8268 114.384 44.8783 114.122 44.8782V44.8594Z" fill="white" stroke="#407BFF" stroke-width="0.916642" stroke-linecap="round" stroke-linejoin="round"/>
<path d="M114.122 47.0285C113.534 47.0285 112.958 47.2022 112.469 47.5276C111.98 47.853 111.599 48.3155 111.374 48.8565C111.149 49.3976 111.09 49.9928 111.206 50.567C111.321 51.1411 111.605 51.6683 112.021 52.0819C112.438 52.4955 112.968 52.7768 113.546 52.8903C114.123 53.0037 114.721 52.9442 115.265 52.7193C115.808 52.4944 116.272 52.1142 116.598 51.6267C116.924 51.1393 117.098 50.5666 117.097 49.9811C117.097 49.5929 117.02 49.2084 116.87 48.8498C116.72 48.4911 116.501 48.1653 116.225 47.8911C115.949 47.6168 115.621 47.3995 115.26 47.2514C114.899 47.1034 114.513 47.0277 114.122 47.0285ZM114.122 51.9559C113.73 51.9559 113.346 51.84 113.019 51.6231C112.693 51.4061 112.439 51.0977 112.288 50.7368C112.138 50.376 112.099 49.979 112.175 49.5959C112.252 49.2128 112.441 48.861 112.719 48.5848C112.996 48.3086 113.35 48.1206 113.735 48.0444C114.12 47.9682 114.519 48.0073 114.882 48.1568C115.245 48.3062 115.555 48.5593 115.773 48.8841C115.991 49.2088 116.107 49.5906 116.107 49.9811C116.107 50.2405 116.056 50.4973 115.956 50.7368C115.856 50.9764 115.71 51.1941 115.526 51.3775C115.341 51.5609 115.123 51.7063 114.882 51.8055C114.641 51.9048 114.383 51.9559 114.122 51.9559Z" fill="white" stroke="#407BFF" stroke-width="0.916642" stroke-linecap="round" stroke-linejoin="round"/>
<path d="M114.122 53.2786C113.535 53.2798 112.962 53.4541 112.475 53.7793C111.988 54.1045 111.608 54.566 111.385 55.1057C111.161 55.6453 111.103 56.2388 111.218 56.8111C111.334 57.3835 111.617 57.909 112.032 58.3213C112.447 58.7336 112.976 59.0142 113.552 59.1276C114.127 59.2411 114.724 59.1822 115.266 58.9586C115.808 58.7349 116.271 58.3565 116.597 57.871C116.923 57.3856 117.096 56.815 117.096 56.2313C117.096 55.843 117.02 55.4585 116.87 55.0999C116.72 54.7412 116.501 54.4155 116.225 54.1412C115.949 53.8669 115.621 53.6496 115.26 53.5016C114.899 53.3535 114.513 53.2778 114.122 53.2786ZM114.122 58.1997C113.731 58.1985 113.349 58.082 113.025 57.8649C112.7 57.6479 112.447 57.34 112.299 56.9802C112.15 56.6204 112.112 56.2248 112.189 55.8434C112.266 55.462 112.455 55.1118 112.732 54.8372C113.009 54.5625 113.361 54.3756 113.745 54.3002C114.128 54.2248 114.526 54.2641 114.887 54.4133C115.248 54.5624 115.557 54.8147 115.774 55.1383C115.991 55.4619 116.107 55.8422 116.107 56.2313C116.105 56.7539 115.896 57.2546 115.524 57.6235C115.151 57.9925 114.648 58.1997 114.122 58.1997Z" fill="white" stroke="#407BFF" stroke-width="0.916642" stroke-linecap="round" stroke-linejoin="round"/>
<path d="M114.122 49.6614C113.983 49.6614 113.85 49.6066 113.752 49.509C113.654 49.4114 113.599 49.2791 113.599 49.1411V44.2701C113.599 44.1321 113.654 43.9998 113.752 43.9022C113.85 43.8046 113.983 43.7498 114.122 43.7498C114.261 43.7498 114.395 43.8044 114.494 43.9018C114.593 43.9992 114.65 44.1316 114.652 44.2701V49.1411C114.65 49.2797 114.593 49.412 114.494 49.5094C114.395 49.6068 114.261 49.6614 114.122 49.6614Z" fill="white" stroke="#407BFF" stroke-width="0.916642" stroke-linecap="round" stroke-linejoin="round"/>
<path d="M114.122 56.3629C113.983 56.3629 113.85 56.3081 113.752 56.2105C113.654 56.1129 113.599 55.9806 113.599 55.8426V50.9716C113.599 50.8336 113.654 50.7013 113.752 50.6037C113.85 50.5061 113.983 50.4513 114.122 50.4513C114.261 50.4513 114.395 50.5059 114.494 50.6033C114.593 50.7007 114.65 50.8331 114.652 50.9716V55.8426C114.65 55.9812 114.593 56.1135 114.494 56.2109C114.395 56.3083 114.261 56.3629 114.122 56.3629Z" fill="white" stroke="#407BFF" stroke-width="0.916642" stroke-linecap="round" stroke-linejoin="round"/>
<path d="M114.122 63.0769C113.983 63.0769 113.85 63.0221 113.752 62.9245C113.654 62.827 113.599 62.6946 113.599 62.5566V57.6857C113.599 57.6173 113.613 57.5497 113.639 57.4865C113.665 57.4234 113.704 57.3661 113.752 57.3177C113.801 57.2694 113.859 57.2311 113.922 57.205C113.986 57.1788 114.054 57.1653 114.122 57.1653C114.261 57.1653 114.395 57.22 114.494 57.3174C114.593 57.4148 114.65 57.5471 114.652 57.6857V62.5566C114.65 62.6952 114.593 62.8275 114.494 62.9249C114.395 63.0223 114.261 63.077 114.122 63.0769Z" fill="white" stroke="#407BFF" stroke-width="0.916642" stroke-linecap="round" stroke-linejoin="round"/>
<path d="M129.472 41.4993H14.0055L10.3758 31.5192H137.444L129.472 41.4993Z" fill="#407BFF" stroke="#407BFF" stroke-width="0.887535" stroke-linecap="round" stroke-linejoin="round"/>
<path d="M126.53 41.4993H11.0627L7.43307 31.5192H134.507L126.53 41.4993Z" fill="white" stroke="#407BFF" stroke-width="0.887535" stroke-linecap="round" stroke-linejoin="round"/>
<path d="M32.4938 200.028H23.048L25.9025 3.86691H27.5787L32.4938 10.8066V200.028Z" fill="#407BFF" stroke="#407BFF" stroke-width="0.887535" stroke-linecap="round" stroke-linejoin="round"/>
<path d="M30.8113 200.028H21.3655V10.8066L25.9025 3.86691L30.8113 10.8066V200.028Z" fill="white" stroke="#407BFF" stroke-width="0.887535" stroke-linecap="round" stroke-linejoin="round"/>
<path d="M23.048 200.028V187.96" stroke="#407BFF" stroke-width="0.887535" stroke-linecap="round" stroke-linejoin="round"/>
<path d="M24.6989 200.028V155.951" stroke="#407BFF" stroke-width="0.887535" stroke-linecap="round" stroke-linejoin="round"/>
<path d="M23.048 186.13V181.742" stroke="#407BFF" stroke-width="0.887535" stroke-linecap="round" stroke-linejoin="round"/>
<path d="M27.7677 122.337V117.949" stroke="#407BFF" stroke-width="0.887535" stroke-linecap="round" stroke-linejoin="round"/>
<path d="M23.048 12.681V8.29279" stroke="#407BFF" stroke-width="0.887535" stroke-linecap="round" stroke-linejoin="round"/>
<path d="M23.048 18.461V14.0727" stroke="#407BFF" stroke-width="0.887535" stroke-linecap="round" stroke-linejoin="round"/>
<path d="M27.7677 150.159V127.264" stroke="#407BFF" stroke-width="0.887535" stroke-linecap="round" stroke-linejoin="round"/>
<path d="M8.35938 33.6005H11.6676" stroke="#407BFF" stroke-width="0.887535" stroke-linecap="round" stroke-linejoin="round"/>
<path d="M9.82761 35.2492H17.7359" stroke="#407BFF" stroke-width="0.887535" stroke-linecap="round" stroke-linejoin="round"/>
<path d="M39.2237 35.2492H47.1256" stroke="#407BFF" stroke-width="0.887535" stroke-linecap="round" stroke-linejoin="round"/>
<path d="M43.1747 37.0797H45.9536" stroke="#407BFF" stroke-width="0.887535" stroke-linecap="round" stroke-linejoin="round"/>
<path d="M57.2079 37.0797H73.705" stroke="#407BFF" stroke-width="0.887535" stroke-linecap="round" stroke-linejoin="round"/>
<path d="M130.241 37.0797H127.481" stroke="#407BFF" stroke-width="0.887535" stroke-linecap="round" stroke-linejoin="round"/>
<path d="M128.949 38.3586H119.579" stroke="#407BFF" stroke-width="0.887535" stroke-linecap="round" stroke-linejoin="round"/>
<path d="M2.19032 202.93H8.372C8.372 202.93 -2.85081 192.975 2.19032 193.991C7.23144 195.007 11.6424 198.542 11.6424 198.542C11.6424 198.542 5.6813 192.963 9.80242 193.978C13.9235 194.994 13.7534 196.674 13.7534 196.674C13.7534 196.674 14.0748 184.619 17.7107 187.948C19.8214 189.784 21.1245 192.37 21.3403 195.151C21.3403 195.151 29.1099 185.591 30.7924 186.117C32.4749 186.644 32.4749 192.493 32.4749 192.493C32.4749 192.493 45.5251 181.911 43.1558 187.948C40.7864 193.985 39.2048 196.254 39.2048 196.254C39.2048 196.254 45.3298 190.869 44.5484 193.978C44.2147 195.479 43.7487 196.947 43.1558 198.367C43.1558 198.367 52.3684 201.238 51.0073 201.232C49.6462 201.225 47.1068 202.968 47.1068 202.968C47.1068 202.968 62.6649 200.461 59.7096 202.968C56.7542 205.476 32.4623 205.056 32.4623 205.056C32.4623 205.056 44.3278 207.946 39.2237 207.946C34.1195 207.946 26.0916 205.852 26.0916 205.852C26.0916 205.852 14.1189 208.359 9.82762 207.946C5.53637 207.532 17.7359 205.852 17.7359 205.852C17.7359 205.852 -5.4785 205.877 2.19032 202.93Z" fill="#407BFF" stroke="#407BFF" stroke-width="0.916642" stroke-linecap="round" stroke-linejoin="round"/>
</svg>
