<svg width="301" height="227" viewBox="0 0 301 227" fill="none" xmlns="http://www.w3.org/2000/svg">
<path d="M300.771 199.01H0V199.16H300.771V199.01Z" fill="#EBEBEB"/>
<path d="M270.634 208.689H250.711V208.839H270.634V208.689Z" fill="#EBEBEB"/>
<path d="M199.243 210.325H194.015V210.475H199.243V210.325Z" fill="#EBEBEB"/>
<path d="M250.109 203.106H238.565V203.257H250.109V203.106Z" fill="#EBEBEB"/>
<path d="M57.5375 204.117H31.5569V204.267H57.5375V204.117Z" fill="#EBEBEB"/>
<path d="M66.705 204.117H62.8972V204.267H66.705V204.117Z" fill="#EBEBEB"/>
<path d="M135.437 206.655H79.0847V206.806H135.437V206.655Z" fill="#EBEBEB"/>
<path d="M142.565 172.181H26.4137C25.5038 172.179 24.6317 171.817 23.9888 171.173C23.346 170.529 22.9849 169.656 22.9849 168.746V5.46976C22.9928 4.56505 23.3574 3.70001 23.9994 3.06252C24.6414 2.42503 25.509 2.06658 26.4137 2.06503H142.565C143.476 2.06503 144.35 2.42691 144.994 3.07106C145.638 3.71521 146 4.58887 146 5.49983V168.746C146 169.657 145.638 170.531 144.994 171.175C144.35 171.819 143.476 172.181 142.565 172.181ZM26.4137 2.18534C25.5437 2.18694 24.7098 2.53367 24.0952 3.14945C23.4805 3.76522 23.1353 4.59972 23.1353 5.46976V168.746C23.1353 169.616 23.4805 170.451 24.0952 171.066C24.7098 171.682 25.5437 172.029 26.4137 172.031H142.565C143.436 172.029 144.27 171.682 144.886 171.067C145.502 170.451 145.848 169.617 145.85 168.746V5.46976C145.848 4.59916 145.502 3.76468 144.886 3.14908C144.27 2.53348 143.436 2.18693 142.565 2.18534H26.4137Z" fill="#EBEBEB"/>
<path d="M272.685 172.181H156.527C155.617 172.179 154.744 171.817 154.1 171.173C153.456 170.529 153.094 169.657 153.092 168.746V5.46976C153.102 4.56451 153.468 3.69947 154.111 3.06214C154.754 2.42482 155.622 2.06657 156.527 2.06503H272.685C273.589 2.06816 274.455 2.42731 275.095 3.06463C275.736 3.70195 276.1 4.56609 276.108 5.46976V168.746C276.108 169.655 275.747 170.527 275.106 171.171C274.464 171.814 273.594 172.178 272.685 172.181ZM156.527 2.18534C155.657 2.18693 154.822 2.53348 154.206 3.14908C153.591 3.76468 153.244 4.59916 153.243 5.46976V168.746C153.244 169.617 153.591 170.451 154.206 171.067C154.822 171.682 155.657 172.029 156.527 172.031H272.685C273.555 172.029 274.39 171.682 275.006 171.067C275.621 170.451 275.968 169.617 275.969 168.746V5.46976C275.968 4.59916 275.621 3.76468 275.006 3.14908C274.39 2.53348 273.555 2.18693 272.685 2.18534H156.527Z" fill="#EBEBEB"/>
<path d="M233.819 159.597C252.155 159.597 267.018 148.167 267.018 134.067C267.018 119.968 252.155 108.538 233.819 108.538C215.484 108.538 200.62 119.968 200.62 134.067C200.62 148.167 215.484 159.597 233.819 159.597Z" fill="#EBEBEB"/>
<path d="M226.871 127.48C241.366 127.48 253.117 118.442 253.117 107.293C253.117 96.1433 241.366 87.105 226.871 87.105C212.377 87.105 200.626 96.1433 200.626 107.293C200.626 118.442 212.377 127.48 226.871 127.48Z" fill="#EBEBEB"/>
<path d="M228.881 18.9623C228.881 18.9623 233.218 15.2147 227.587 14.3184C217.361 12.6883 208.115 17.7833 206.942 18.4631C208.145 16.099 207.291 14.2523 201.125 14.92C196.271 15.4313 183.236 21.9159 183.236 21.9159H246.951C255.751 14.0056 228.881 18.9623 228.881 18.9623Z" fill="#F0F0F0"/>
<path d="M57.3089 47.5837C57.3089 47.5837 60.882 44.8045 57.8382 44.1429C52.3221 42.9398 45.5006 46.7114 44.6043 47.2107C45.9698 45.4602 45.9578 44.1128 42.1982 44.588C39.1904 44.967 29.8064 49.7673 29.8064 49.7673H67.0539C74.3866 43.9083 57.3089 47.5837 57.3089 47.5837Z" fill="#F0F0F0"/>
<path d="M255.276 42.0314C255.276 42.0314 257.815 40.0584 255.655 39.5832C251.733 38.729 246.885 41.3878 246.265 41.7668C247.24 40.5216 247.228 39.5651 244.545 39.902C242.427 40.1727 235.738 43.5834 235.738 43.5834H262.206C267.409 39.4207 255.276 42.0314 255.276 42.0314Z" fill="#F5F5F5"/>
<path d="M66.705 184.904C76.5321 184.904 84.4986 178.777 84.4986 171.219C84.4986 163.66 76.5321 157.533 66.705 157.533C56.8778 157.533 48.9114 163.66 48.9114 171.219C48.9114 178.777 56.8778 184.904 66.705 184.904Z" fill="#EBEBEB"/>
<path d="M55.6005 174.28C42.6313 174.28 32.1404 185.349 32.1404 199.01H79.1027C79.0847 185.349 68.5758 174.28 55.6005 174.28Z" fill="#EBEBEB"/>
<path d="M171.8 71.3085H67.517V199.01H171.8V71.3085Z" fill="#F0F0F0"/>
<path d="M171.794 199.01H233.254L233.254 71.3085L171.794 71.3085V199.01Z" fill="#E6E6E6"/>
<path d="M190.923 127.938H214.137V83.604H190.923V127.938Z" fill="#F5F5F5"/>
<path d="M128.038 104.592H151.252V77.8593H128.038V104.592Z" fill="#F5F5F5"/>
<path d="M88.0657 104.592H111.279V77.8593H88.0657V104.592Z" fill="#F5F5F5"/>
<path d="M128.038 114.487H151.252V109.542H128.038V114.487Z" fill="#F5F5F5"/>
<path d="M88.0657 114.487H111.279V109.542H88.0657V114.487Z" fill="#F5F5F5"/>
<path d="M171.794 199.01H233.254V143.427H171.794V199.01Z" fill="#F5F5F5"/>
<path d="M204.434 179.207H223.846V152.096H204.434V179.207Z" fill="#E6E6E6"/>
<path d="M181.214 179.207H200.626V152.096H181.214V179.207Z" fill="#E6E6E6"/>
<path d="M171.8 143.427H67.517V199.01H171.8V143.427Z" fill="#FAFAFA"/>
<path d="M107.261 150.646H84.4926V195.882H107.261V150.646Z" fill="#E6E6E6"/>
<path d="M181.112 31.5406H119.659L171.8 71.3085H233.254L181.112 31.5406Z" fill="#F0F0F0"/>
<path d="M108.223 26.7944H91.1155V61.9485H108.223V26.7944Z" fill="#EBEBEB"/>
<path d="M119.659 31.5406L67.517 71.3085H171.8L119.659 31.5406Z" fill="#FAFAFA"/>
<path d="M119.659 39.1922L77.5507 71.3085H161.767L119.659 39.1922Z" fill="#F0F0F0"/>
<path d="M143.299 121.639H72.7204L56.8818 137.478V143.427H159.144V137.478L143.299 121.639Z" fill="#E6E6E6"/>
<path d="M233.26 192.754H56.8818V199.01H233.26V192.754Z" fill="#E6E6E6"/>
<path d="M171.8 171.219H101.528V192.754H171.8V171.219Z" fill="#F0F0F0"/>
<path d="M143.768 143.427H139.624V192.754H143.768V143.427Z" fill="#E6E6E6"/>
<path d="M64.2326 143.427H60.088V192.754H64.2326V143.427Z" fill="#E6E6E6"/>
<path d="M150.385 226.175C214.8 226.175 267.018 223.127 267.018 219.366C267.018 215.605 214.8 212.556 150.385 212.556C85.9708 212.556 33.7525 215.605 33.7525 219.366C33.7525 223.127 85.9708 226.175 150.385 226.175Z" fill="#F5F5F5"/>
<path d="M172.835 107.846H164.467V221.171H172.835V107.846Z" fill="#407BFF"/>
<path opacity="0.3" d="M172.835 107.846H164.467V221.171H172.835V107.846Z" fill="white"/>
<path d="M181.202 107.846H172.835V221.171H181.202V107.846Z" fill="#407BFF"/>
<path opacity="0.5" d="M181.202 107.846H172.835V221.171H181.202V107.846Z" fill="white"/>
<path d="M241.11 114.301H175.584V122.271H241.11V114.301Z" fill="#407BFF"/>
<path opacity="0.3" d="M241.11 114.301H175.584V122.271H241.11V114.301Z" fill="white"/>
<path d="M246.867 114.301H241.11V122.271H246.867V114.301Z" fill="#407BFF"/>
<path opacity="0.5" d="M246.867 114.301H241.11V122.271H246.867V114.301Z" fill="white"/>
<path d="M235.876 122.271H186.309V169.661H235.876V122.271Z" fill="#407BFF"/>
<path opacity="0.2" d="M235.876 122.271H234.132V169.661H235.876V122.271Z" fill="black"/>
<path d="M132.183 59.6686L131.274 60.8717C130.98 61.2507 130.673 61.6176 130.366 61.9846C129.765 62.7185 129.127 63.4283 128.489 64.1381C127.202 65.5397 125.867 66.9172 124.405 68.2286C122.918 69.6084 121.332 70.8771 119.659 72.0243C118.738 72.6547 117.777 73.2253 116.783 73.7327C115.612 74.3343 114.372 74.7909 113.09 75.0922L112.831 75.1463C112.608 75.1966 112.38 75.2268 112.151 75.2365C110.907 75.2731 109.67 75.0176 108.542 74.4906C107.771 74.136 107.047 73.6853 106.389 73.1492C105.391 72.3364 104.482 71.4211 103.676 70.4182C102.319 68.721 101.111 66.9096 100.066 65.0043C99.0678 63.1997 98.1836 61.359 97.3835 59.5002C96.5723 57.6455 95.8575 55.7502 95.242 53.8217C95.0571 53.2059 95.0937 52.5449 95.3457 51.9534C95.5976 51.3619 96.0489 50.8775 96.621 50.5843C97.1932 50.291 97.85 50.2076 98.4772 50.3485C99.1045 50.4894 99.6626 50.8456 100.054 51.3553L100.109 51.4275C101.221 52.9254 102.346 54.4954 103.477 55.9932C104.608 57.4911 105.739 59.0009 106.906 60.3905C107.984 61.7332 109.152 63.0013 110.401 64.1862C110.876 64.6471 111.402 65.0508 111.971 65.3893C112.175 65.4976 112.332 65.5397 112.32 65.5096C112.308 65.4795 112.079 65.3292 111.532 65.3412L110.593 65.4855C111.011 65.2803 111.413 65.0451 111.796 64.7817C112.302 64.4329 112.867 64.0298 113.427 63.5787C113.986 63.1275 114.564 62.5982 115.129 62.0568C115.694 61.5154 116.278 60.962 116.849 60.3845C117.98 59.1814 119.117 57.9783 120.224 56.7331L121.878 54.8323L123.466 52.9675L123.617 52.793C124.544 51.705 125.859 51.0218 127.283 50.889C128.706 50.7561 130.125 51.1841 131.237 52.0818C132.35 52.9795 133.068 54.276 133.239 55.6953C133.41 57.1146 133.02 58.5445 132.153 59.6807L132.183 59.6686Z" fill="#263238"/>
<path d="M99.9281 50.1884C99.5852 47.4814 94.6706 46.2302 94.6706 46.2302L91.8012 44.961C91.331 44.7514 90.8014 44.7162 90.3075 44.8617C89.8137 45.0072 89.3878 45.3239 89.1063 45.755L87.6446 47.9927C87.4905 48.2337 87.3855 48.5026 87.3353 48.7841C87.2852 49.0657 87.291 49.3543 87.3525 49.6336C87.4139 49.9129 87.5298 50.1774 87.6934 50.4119C87.8571 50.6464 88.0653 50.8464 88.3063 51.0005L90.941 52.6487C91.4136 52.9405 91.9425 53.1291 92.493 53.2021L94.7307 53.4908C95.671 53.6124 96.6265 53.4643 97.4859 53.0639C98.3454 52.6634 99.0734 52.0271 99.5852 51.229L99.7235 51.0185C99.883 50.7726 99.955 50.4802 99.9281 50.1884Z" fill="#FFB573"/>
<path d="M133.44 157.016C141.26 132.191 147.33 101.981 147.33 101.981L123.779 99.6652C123.779 99.6652 122.233 138.537 120.771 155.753C119.244 173.649 113.27 215.221 113.27 215.221L120.429 215.823C120.429 215.823 132.718 179.243 133.44 157.016Z" fill="#263238"/>
<path d="M138.144 122.265L141.416 128.106C139.744 134.922 137.807 142.417 135.648 149.762C135.948 138.236 137.151 124.942 138.144 122.265Z" fill="black"/>
<path d="M103.676 216.876C103.676 216.876 113.8 216.045 114.768 214.608L120.212 215.432L119.316 221.171L115.959 220.665L115.526 220.064L114.594 220.467C111.887 220.052 104.668 218.861 103.068 218.018C103.059 217.791 103.111 217.566 103.218 217.365C103.324 217.164 103.482 216.995 103.676 216.876Z" fill="#263238"/>
<path d="M156.329 155.362C155.914 129.838 157.532 112.779 155.36 100.201L133.843 99.8757C133.843 99.8757 139.131 140.371 141.759 157.233C144.388 174.094 147.733 215.733 147.733 215.733H154.386C154.386 215.733 160.172 175.111 156.329 155.362Z" fill="#263238"/>
<path d="M141.212 219.252C141.212 219.252 147.594 216.924 148.43 215.36H153.94L153.525 221.171H149.026L148.539 220.635L147.648 221.171C144.899 221.171 142.379 221.062 140.695 220.443C140.675 220.217 140.712 219.99 140.803 219.782C140.893 219.574 141.034 219.392 141.212 219.252Z" fill="#263238"/>
<path d="M154.404 49.268C146.794 48.3236 135.918 48.4138 128.628 49.671C126.806 50.0006 125.135 50.8949 123.85 52.2272C122.566 53.5594 121.733 55.2621 121.469 57.0941C119.935 68.1023 121.253 87.3456 122.233 106.715C138.884 112.412 156.455 106.637 156.455 106.637C157.056 102.727 155.697 89.9262 154.777 83.0927C156.154 76.0366 159.066 67.9519 160.991 58.5799C161.227 57.5308 161.241 56.4438 161.03 55.3892C160.82 54.3346 160.39 53.336 159.769 52.458C159.148 51.5801 158.35 50.8424 157.426 50.2929C156.501 49.7433 155.472 49.3942 154.404 49.268Z" fill="#263238"/>
<path d="M134.781 48.9311C133.867 49.8515 133.259 51.3012 132.935 53.1419C132.153 57.6114 133.037 64.499 135.395 72.3913C137.651 66.0269 142.505 57.6054 145.489 52.7148C146.902 50.3989 147.895 48.865 147.979 48.7326C143.629 47.7265 139.099 47.7946 134.781 48.9311Z" fill="#E0E0E0"/>
<path d="M146.872 34.7288L138.204 41.839C139.329 44.8166 139.684 47.9206 134.787 49.1176C133.584 50.7358 135.726 52.5885 137.747 53.4307C141.013 53.0277 145.621 51.9389 147.612 49.2199C146.981 47.0543 146.03 39.1381 146.872 34.7288Z" fill="#FFB573"/>
<path d="M135.678 51.6381C136.043 52.6772 136.664 53.608 137.482 54.345C138.806 54.345 140.737 52.8592 140.737 52.8592C140.737 52.8592 139.991 50.7598 138.932 50.3327C136.255 50.9944 135.678 51.6381 135.678 51.6381Z" fill="#407BFF"/>
<path d="M138.697 53.4367C138.492 53.278 138.257 53.1631 138.005 53.099C137.754 53.0348 137.492 53.0228 137.236 53.0637C135.503 55.524 134.402 59.3498 133.332 63.7652C133.845 66.6972 134.534 69.5958 135.395 72.4454C136.36 69.8262 137.485 67.2688 138.764 64.7878C138.269 61.0216 138.247 57.2084 138.697 53.4367Z" fill="#407BFF"/>
<path opacity="0.2" d="M143.257 37.6943L138.21 41.8329C138.48 42.5233 138.682 43.2386 138.812 43.9684C140.767 44.1068 143.486 42.1277 143.624 40.3592C143.667 39.4559 143.542 38.5525 143.257 37.6943Z" fill="black"/>
<path d="M134.631 22.2889C130.853 26.0124 133.332 31.9677 133.332 31.9677C133.332 31.9677 139.937 20.1835 134.631 22.2889Z" fill="#263238"/>
<path d="M148.112 29.8863C147.324 35.3002 147.137 38.5425 144.141 41.093C139.636 44.9309 133.097 41.8089 132.243 36.2326C131.479 31.2097 132.899 23.1671 138.433 21.4828C139.658 21.1102 140.958 21.0547 142.211 21.3216C143.464 21.5885 144.628 22.169 145.595 23.0088C146.563 23.8485 147.301 24.92 147.741 26.1229C148.181 27.3258 148.308 28.6207 148.112 29.8863Z" fill="#FFB573"/>
<path d="M148.719 32.6715C144.647 33.5076 143.468 30.3555 143.468 30.3555C144.293 30.5271 145.145 30.5271 145.97 30.3555C145.97 30.3555 143.227 27.5524 145.369 24.8394C144.25 23.6363 139.269 24.1536 136.947 24.8394C134.408 23.8829 133.103 23.4378 131.75 20.4241C133.001 20.6407 134.288 20.4816 135.449 19.9669C137.976 18.8059 134.186 17.9517 134.186 17.9517C137.091 16.816 140.24 16.4453 143.329 16.875C149.224 17.7051 150.139 19.4556 149.91 21.4407C152.996 21.4046 153.303 24.8394 153.303 24.8394C152.928 24.5389 152.487 24.3327 152.016 24.2379C152.19 25.2845 152.792 31.4263 148.719 32.6715Z" fill="#263238"/>
<path d="M149.074 21.8437C150.205 21.3324 150.548 18.6315 149.88 17.5006C152.906 20.7128 150.722 22.0242 149.074 21.8437Z" fill="#263238"/>
<path d="M149.952 34.1031C149.7 34.6736 149.337 35.1884 148.885 35.6179C148.433 36.0474 147.9 36.3831 147.318 36.6056C145.747 37.2071 144.809 35.8236 145.116 34.2716C145.393 32.87 146.542 30.8849 148.178 30.9691C148.534 30.9924 148.879 31.1041 149.182 31.294C149.485 31.4839 149.735 31.7461 149.911 32.057C150.087 32.3679 150.183 32.7177 150.19 33.0749C150.198 33.4321 150.116 33.7854 149.952 34.1031Z" fill="#FFB573"/>
<path d="M140.484 30.0848C140.448 30.53 140.177 30.8668 139.882 30.8428C139.588 30.8187 139.383 30.4337 139.425 29.9886C139.467 29.5435 139.726 29.2006 140.027 29.2307C140.328 29.2607 140.52 29.6397 140.484 30.0848Z" fill="#263238"/>
<path d="M135.16 29.9525C135.124 30.3976 134.86 30.7405 134.559 30.7105C134.258 30.6804 134.066 30.3014 134.102 29.8563C134.138 29.4111 134.402 29.0743 134.703 29.0983C135.004 29.1224 135.196 29.5074 135.16 29.9525Z" fill="#263238"/>
<path d="M136.237 30.554C136.237 30.554 135.034 33.0264 133.795 34.1633C134.523 34.9694 135.888 34.7648 135.888 34.7648L136.237 30.554Z" fill="#ED893E"/>
<path d="M141.777 28.7494C141.821 28.7587 141.866 28.7587 141.91 28.7494C141.942 28.7369 141.972 28.7179 141.996 28.6938C142.021 28.6696 142.041 28.6406 142.055 28.6086C142.068 28.5766 142.075 28.5422 142.075 28.5075C142.075 28.4728 142.068 28.4385 142.054 28.4065C141.905 28.0115 141.663 27.6579 141.349 27.3753C141.035 27.0928 140.658 26.8895 140.249 26.7824C140.182 26.7699 140.112 26.7843 140.055 26.8224C139.997 26.8606 139.957 26.9196 139.943 26.9869C139.928 27.0555 139.942 27.1269 139.98 27.1856C140.019 27.2442 140.079 27.2853 140.147 27.2997C140.466 27.3894 140.76 27.5541 141.002 27.7802C141.245 28.0062 141.43 28.2869 141.543 28.599C141.563 28.6439 141.596 28.6819 141.638 28.7085C141.68 28.7352 141.728 28.7494 141.777 28.7494Z" fill="#263238"/>
<path d="M132.682 28.2562C132.723 28.2709 132.767 28.2753 132.81 28.269C132.853 28.2627 132.894 28.2459 132.929 28.2201C133.186 28.0158 133.488 27.876 133.811 27.8122C134.133 27.7483 134.466 27.7624 134.781 27.8531C134.814 27.8655 134.848 27.8713 134.883 27.8701C134.917 27.8689 134.951 27.8608 134.983 27.8462C135.014 27.8316 135.042 27.8109 135.066 27.7852C135.089 27.7595 135.107 27.7294 135.118 27.6967C135.142 27.6313 135.138 27.5593 135.109 27.4963C135.08 27.4332 135.027 27.3843 134.962 27.3599C134.564 27.2388 134.143 27.2155 133.735 27.2919C133.327 27.3684 132.943 27.5423 132.616 27.799C132.578 27.8276 132.549 27.8657 132.532 27.9093C132.514 27.9529 132.508 28.0004 132.515 28.047C132.522 28.0936 132.541 28.1375 132.57 28.1743C132.599 28.211 132.638 28.2393 132.682 28.2562Z" fill="#263238"/>
<path d="M147.979 48.7507C147.889 48.883 146.902 50.4169 145.489 52.7329C144.068 54.0471 142.325 54.9623 140.436 55.3857C140.713 54.4533 139.876 51.2952 138.95 50.3207C141.134 50.447 144.141 50.0741 147.979 48.7507Z" fill="#FAFAFA"/>
<path d="M138.956 50.3327C137.956 50.7714 137.055 51.4078 136.308 52.2039C135.56 52.9999 134.982 53.939 134.607 54.9646C134.221 54.7959 133.875 54.5481 133.591 54.2372C133.307 53.9264 133.092 53.5594 132.959 53.16C133.284 51.3012 133.891 49.8515 134.805 48.9492C135.293 49.5868 136.67 50.1884 138.956 50.3327Z" fill="#FAFAFA"/>
<path d="M161.009 54.5856C161.454 55.5541 161.827 56.3903 162.212 57.3347C162.597 58.2791 162.934 59.1393 163.282 60.0777C163.956 61.9184 164.588 63.7832 165.141 65.7081C165.724 67.6663 166.202 69.6542 166.573 71.6634C166.765 72.698 166.928 73.7688 167.036 74.8997C167.151 76.1377 167.165 77.383 167.078 78.6232C166.814 81.1208 166.038 83.5372 164.798 85.7214C163.768 87.5974 162.559 89.3701 161.189 91.015C159.9 92.5725 158.516 94.0491 157.044 95.4363C155.587 96.815 154.04 98.0951 152.413 99.2681C151.888 99.6425 151.248 99.8205 150.606 99.7712C149.963 99.7219 149.358 99.4484 148.897 98.9984C148.435 98.5484 148.147 97.9506 148.081 97.3094C148.016 96.6682 148.178 96.0244 148.539 95.4904L148.629 95.3641L150.139 93.1444C150.65 92.3985 151.137 91.6346 151.625 90.8766C152.581 89.3668 153.513 87.8689 154.313 86.329C155.109 84.8932 155.795 83.3991 156.365 81.8595C156.614 81.185 156.815 80.4935 156.966 79.7902C157.09 79.2521 157.141 78.6997 157.117 78.148C157.072 77.5067 156.982 76.8695 156.846 76.2411C156.702 75.5072 156.527 74.7252 156.311 73.9252C155.865 72.3251 155.336 70.6648 154.759 68.9986C154.181 67.3323 153.556 65.654 152.912 63.9757L150.963 58.9889L150.915 58.8746C150.401 57.5448 150.424 56.0672 150.979 54.7541C151.535 53.441 152.579 52.3955 153.892 51.8385C155.204 51.2815 156.682 51.2567 158.012 51.7693C159.342 52.282 160.421 53.2919 161.021 54.5856H161.009Z" fill="#263238"/>
<path d="M128.76 82.9303C126.344 84.8079 124.717 87.5208 124.198 90.5364C123.68 93.552 124.307 96.6525 125.957 99.2293C127.607 101.806 130.161 103.673 133.117 104.464C136.073 105.255 139.217 104.912 141.934 103.503L143.438 105.428L143.161 106.631L146.355 110.74L148.1 110.776L147.624 112.803L153.892 120.863L157.261 120.924L158.392 122.385L157.832 124.792L161.989 130.133L165.514 130.199L166.116 126.416L145.85 100.363C147.749 98.0238 148.721 95.0673 148.58 92.0575C148.439 89.0476 147.195 86.195 145.085 84.0436C142.976 81.8923 140.148 80.5928 137.141 80.393C134.135 80.1932 131.16 81.1071 128.784 82.9603L128.76 82.9303ZM133.945 89.5953C133.458 89.9755 132.87 90.2027 132.254 90.2482C131.638 90.2938 131.022 90.1556 130.485 89.8512C129.948 89.5467 129.513 89.0897 129.235 88.538C128.957 87.9863 128.85 87.3646 128.925 86.7517C129.001 86.1387 129.257 85.562 129.661 85.0945C130.064 84.627 130.597 84.2897 131.193 84.1253C131.788 83.9609 132.419 83.9768 133.005 84.171C133.592 84.3652 134.107 84.7289 134.487 85.2161C134.995 85.8688 135.224 86.6967 135.122 87.5178C135.021 88.3389 134.597 89.0861 133.945 89.5953Z" fill="#407BFF"/>
<path d="M153.164 98.0831C153.085 97.7927 152.903 97.5407 152.653 97.3733L150.53 95.9055C150.326 95.7642 150.086 95.6831 149.838 95.6714C149.591 95.6597 149.344 95.7179 149.128 95.8394L147.221 96.9281C145.367 97.9775 143.761 99.4137 142.511 101.139L142.096 101.74C141.928 101.975 141.808 102.241 141.744 102.523C141.679 102.805 141.672 103.096 141.722 103.381C141.772 103.665 141.878 103.937 142.034 104.18C142.19 104.423 142.393 104.633 142.631 104.796L144.833 106.312C145.258 106.604 145.772 106.735 146.285 106.682C146.797 106.629 147.274 106.396 147.63 106.023L149.784 103.726C149.784 103.726 153.874 100.718 153.164 98.0831Z" fill="#FFB573"/>
<path d="M149.248 94.7025C148.306 95.101 147.43 95.6406 146.65 96.3026C146.926 97.9929 151.637 100.808 153.225 100.844C153.868 100.243 154.716 97.7703 154.716 97.7703C152.936 97.0003 150.536 95.304 149.248 94.7025Z" fill="#E0E0E0"/>
<path d="M101.059 52.5945C101.08 51.5776 100.946 50.5635 100.662 49.5868C99.0077 49.1417 94.5142 52.2938 93.8345 53.7375C94.1292 54.5736 96.0241 56.3482 96.0241 56.3482C97.4497 55.0007 99.9762 53.4968 101.059 52.5945Z" fill="#E0E0E0"/>
<path d="M147.342 215.919L154.728 216.13L155.498 211.931L146.854 212.448L147.342 215.919Z" fill="#407BFF"/>
<path d="M112.921 215.167L120.82 216.388L122.155 212.899L113.403 210.92L112.921 215.167Z" fill="#407BFF"/>
<path d="M137.945 36.3529C137.66 36.3652 137.374 36.3511 137.091 36.3108C137.072 36.308 137.054 36.3013 137.038 36.2911C137.022 36.2809 137.008 36.2675 136.997 36.2516C136.986 36.2358 136.979 36.2179 136.976 36.1991C136.972 36.1803 136.973 36.161 136.977 36.1424C136.986 36.102 137.009 36.0663 137.042 36.0419C137.075 36.0175 137.116 36.0062 137.157 36.01C137.795 36.1046 138.445 36.0536 139.06 35.8609C139.674 35.6681 140.237 35.3387 140.707 34.8972C140.736 34.8692 140.774 34.8536 140.815 34.8536C140.855 34.8536 140.894 34.8692 140.923 34.8972C140.951 34.9253 140.966 34.9631 140.966 35.0024C140.966 35.0418 140.951 35.0796 140.923 35.1077C140.119 35.8772 139.058 36.3209 137.945 36.3529Z" fill="#263238"/>
<path d="M117.246 14.3666L99.0498 12.9048L83.5962 5.23517L66.6568 10.3001L64.2145 40.7081L114.804 44.7745L117.246 14.3666Z" fill="#407BFF"/>
<path d="M58.9751 43.6617L50.9686 43.018L51.9732 30.53L52.9297 30.6082L52.0033 42.1398L59.0533 42.7052L58.9751 43.6617Z" fill="#407BFF"/>
<path d="M62.7526 42.7613L62.6756 43.7237L68.9316 44.2242L69.0086 43.2617L62.7526 42.7613Z" fill="#407BFF"/>
<path d="M66.9776 29.6943L55.4832 28.7694L54.5849 39.9341L66.0793 40.8589L66.9776 29.6943Z" fill="#407BFF"/>
<path opacity="0.2" d="M66.0854 40.8585L76.1672 41.6705L77.3884 26.4636L66.9817 29.6878L66.0854 40.8585Z" fill="black"/>
<path opacity="0.2" d="M117.247 14.3809L99.0491 12.9167L96.6027 43.3227L114.801 44.7868L117.247 14.3809Z" fill="black"/>
<path d="M101.793 6.69691L83.5963 5.23517L99.0499 12.9048L117.246 14.3666L101.793 6.69691Z" fill="#263238"/>
<path d="M117.246 15.329H117.168L98.9717 13.8673C98.8502 13.8544 98.732 13.8198 98.6228 13.765L83.1692 6.09536C82.9689 5.99588 82.8096 5.8298 82.7185 5.62563C82.6274 5.42146 82.6102 5.19195 82.6699 4.97649C82.7314 4.76184 82.8647 4.57482 83.0475 4.44671C83.2304 4.3186 83.4517 4.25716 83.6745 4.27268L101.871 5.73443C101.995 5.74721 102.115 5.78184 102.226 5.83669L117.674 13.4943C117.858 13.5958 118.004 13.7549 118.089 13.9471C118.174 14.1394 118.194 14.3542 118.146 14.5589C118.097 14.7635 117.983 14.9467 117.821 15.0803C117.658 15.2139 117.457 15.2907 117.246 15.2989V15.329ZM99.3085 11.9604L112.35 13.0131L101.522 7.64132L88.4808 6.58862L99.3085 11.9604Z" fill="#263238"/>
<path d="M65.8989 25.5432L77.3883 26.4636L66.9816 29.6878L55.4922 28.7675L65.8989 25.5432Z" fill="#263238"/>
<path d="M66.9817 30.3014H66.9336L55.4381 29.375C55.2969 29.3644 55.1639 29.3042 55.0627 29.2052C54.9615 29.1062 54.8984 28.9746 54.8847 28.8336C54.8704 28.6893 54.9089 28.5446 54.9929 28.4263C55.0769 28.3081 55.2008 28.2241 55.3418 28.19L65.7485 24.9597C65.824 24.9451 65.9016 24.9451 65.9771 24.9597L77.4665 25.8861C77.6079 25.8952 77.7415 25.9539 77.8439 26.0518C77.9462 26.1497 78.0107 26.2806 78.026 26.4215C78.0432 26.5628 78.0097 26.7056 77.9315 26.8246C77.8533 26.9435 77.7354 27.0309 77.5989 27.0711L67.1922 30.2954C67.1229 30.3098 67.0517 30.3118 66.9817 30.3014ZM58.6804 28.4126L66.9155 29.0743L74.2002 26.8185L65.9651 26.1568L58.6804 28.4126Z" fill="#263238"/>
<path d="M67.12 11.2987C66.8921 11.296 66.6726 11.2124 66.5005 11.063C66.3284 10.9136 66.215 10.7079 66.1803 10.4827C66.1457 10.2574 66.1921 10.0271 66.3113 9.8329C66.4305 9.63865 66.6147 9.493 66.8313 9.42189L83.3135 4.3148C83.4384 4.24799 83.5764 4.20956 83.7179 4.20224C83.8593 4.19493 84.0006 4.21891 84.1317 4.27247C84.2627 4.32604 84.3804 4.40787 84.4762 4.51213C84.572 4.6164 84.6437 4.74052 84.686 4.87565C84.7284 5.01078 84.7404 5.15359 84.7212 5.29389C84.702 5.43419 84.6521 5.56853 84.575 5.68732C84.4979 5.80611 84.3956 5.90643 84.2752 5.98112C84.1549 6.05581 84.0196 6.10304 83.879 6.11943L67.4027 11.2265C67.3128 11.265 67.2174 11.2893 67.12 11.2987Z" fill="#263238"/>
<path opacity="0.6" d="M89.8718 30.9393L83.3029 30.4138L82.3467 42.3664L88.9155 42.8919L89.8718 30.9393Z" fill="white"/>
<path d="M90.4846 15.9425L75.0868 14.7036L74.3419 23.9615L89.7398 25.2003L90.4846 15.9425Z" fill="white"/>
<path d="M82.0899 15.8845L75.6082 15.363L74.9617 23.3977L81.4434 23.9192L82.0899 15.8845Z" fill="#407BFF"/>
<path d="M89.8648 16.5123L83.3831 15.9908L82.7366 24.0254L89.2183 24.5469L89.8648 16.5123Z" fill="#407BFF"/>
<path d="M112.37 17.7081L103.765 17.0158L103.021 26.2737L111.625 26.966L112.37 17.7081Z" fill="white"/>
<path d="M107.652 17.9454L104.03 17.654L103.384 25.6887L107.005 25.9801L107.652 17.9454Z" fill="#407BFF"/>
<path d="M111.995 18.2926L108.373 18.0012L107.727 26.0359L111.348 26.3273L111.995 18.2926Z" fill="#407BFF"/>
<path d="M111.175 32.5012L102.571 31.8089L101.826 41.0668L110.43 41.7591L111.175 32.5012Z" fill="white"/>
<path d="M106.457 32.7385L102.835 32.4471L102.189 40.4818L105.811 40.7732L106.457 32.7385Z" fill="#407BFF"/>
<path d="M111.175 33.2701L107.542 32.9795L106.897 41.0401L110.53 41.3308L111.175 33.2701Z" fill="#407BFF"/>
</svg>
